%
M48
M72
T01C0.02362
T02C0.02400
T03C0.03200
T04C0.03900
T05C0.03937
T06C0.04000
T07C0.05118
T08C0.13500
%
T01
X70803Y95724
X272772Y158008
X273362Y92181
X348795Y176354
X278953Y331394
X298283Y362181
T02
X113992Y189780
X113992Y169780
T03
X76591Y167260
X56591Y167260
X56787Y197299
X76787Y197299
X70567Y254268
X57299Y254071
X47299Y254071
X47063Y279622
X57063Y279622
X69110Y279819
X69898Y305213
X57260Y305331
X47260Y305331
X109898Y305213
X109110Y279819
X110567Y254268
X281236Y253126
X311236Y253126
X311394Y271315
X311394Y301315
X329465Y186354
X329465Y176354
X329465Y166354
X329465Y156354
X329465Y146354
X329465Y136354
X329465Y126354
X329465Y116354
X359465Y116354
X359465Y126354
X359465Y136354
X359465Y146354
X359465Y156354
X359465Y166354
X359465Y176354
X359465Y186354
T04
X227260Y185016
X227260Y175016
X227260Y165016
X227260Y155016
X227260Y145016
X227260Y135016
X227260Y125016
X227260Y115016
X167260Y115016
X167260Y125016
X167260Y135016
X167260Y145016
X167260Y155016
X167260Y165016
X167260Y175016
X167260Y185016
X167260Y195016
X167260Y205016
X167260Y215016
X167260Y225016
X167260Y235016
X167260Y245016
X167260Y255016
X167260Y265016
X167260Y275016
X167260Y285016
X167260Y295016
X167260Y305016
X227260Y305016
X227260Y295016
X227260Y285016
X227260Y275016
X227260Y265016
X227260Y255016
X227260Y245016
X227260Y235016
X227260Y225016
X227260Y215016
X227260Y205016
X227260Y195016
T05
X309858Y71000
X329543Y71000
X89661Y367339
X69976Y367339
T06
X141906Y304976
X141906Y294976
X141906Y284976
X141906Y274976
X141906Y264976
X141906Y254976
X141906Y244976
X141906Y234976
X141906Y224976
X141906Y214976
X141906Y204976
X141906Y194976
X141906Y184976
X141906Y174976
X141906Y164976
X141906Y154976
X141906Y144976
X141906Y134976
X141906Y124976
X141906Y114976
X109701Y97693
X89701Y97693
X252417Y115094
X252417Y125094
X252417Y135094
X252417Y145094
X252417Y155094
X252417Y165094
X252417Y175094
X252417Y185094
X252417Y195094
X252417Y205094
X252417Y215094
X252417Y225094
X252417Y235094
X252417Y245094
X252417Y255094
X252417Y265094
X252417Y275094
X252417Y285094
X252417Y295094
X252417Y305094
X314701Y322260
X314701Y332260
X314701Y342260
X314701Y352260
X314701Y362260
X314701Y372260
X305803Y155409
X305803Y145409
X382417Y146984
X382417Y156984
T07
X359465Y253047
X333874Y253047
T08
X16748Y16748
X16748Y378953
X378953Y378953
X378953Y16748
M30
