G75*
%MOIN*%
%OFA0B0*%
%FSLAX25Y25*%
%IPPOS*%
%LPD*%
%AMOC8*
5,1,8,0,0,1.08239X$1,22.5*
%
%ADD10OC8,0.05200*%
%ADD11C,0.10000*%
%ADD12OC8,0.10000*%
%ADD13C,0.05200*%
%ADD14C,0.06000*%
%ADD15C,0.27000*%
%ADD16C,0.04400*%
%ADD17C,0.07677*%
%ADD18R,0.05900X0.05900*%
%ADD19C,0.05900*%
%ADD20OC8,0.07874*%
%ADD21C,0.02400*%
%ADD22C,0.03962*%
D10*
X0056591Y0167260D03*
X0076591Y0167260D03*
X0076787Y0197299D03*
X0056787Y0197299D03*
X0057299Y0254071D03*
X0047299Y0254071D03*
X0070567Y0254268D03*
X0069110Y0279819D03*
X0057063Y0279622D03*
X0047063Y0279622D03*
X0047260Y0305331D03*
X0057260Y0305331D03*
X0069898Y0305213D03*
X0109898Y0305213D03*
X0109110Y0279819D03*
X0110567Y0254268D03*
X0281236Y0253126D03*
X0311236Y0253126D03*
X0311394Y0271315D03*
X0311394Y0301315D03*
D11*
X0109701Y0097693D03*
D12*
X0089701Y0097693D03*
D13*
X0326865Y0116354D02*
X0332065Y0116354D01*
X0332065Y0126354D02*
X0326865Y0126354D01*
X0326865Y0136354D02*
X0332065Y0136354D01*
X0332065Y0146354D02*
X0326865Y0146354D01*
X0326865Y0156354D02*
X0332065Y0156354D01*
X0332065Y0166354D02*
X0326865Y0166354D01*
X0326865Y0176354D02*
X0332065Y0176354D01*
X0332065Y0186354D02*
X0326865Y0186354D01*
X0356865Y0186354D02*
X0362065Y0186354D01*
X0362065Y0176354D02*
X0356865Y0176354D01*
X0356865Y0166354D02*
X0362065Y0166354D01*
X0362065Y0156354D02*
X0356865Y0156354D01*
X0356865Y0146354D02*
X0362065Y0146354D01*
X0362065Y0136354D02*
X0356865Y0136354D01*
X0356865Y0126354D02*
X0362065Y0126354D01*
X0362065Y0116354D02*
X0356865Y0116354D01*
D14*
X0379417Y0146984D02*
X0385417Y0146984D01*
X0385417Y0156984D02*
X0379417Y0156984D01*
X0308803Y0155409D02*
X0302803Y0155409D01*
X0302803Y0145409D02*
X0308803Y0145409D01*
X0255417Y0145094D02*
X0249417Y0145094D01*
X0249417Y0135094D02*
X0255417Y0135094D01*
X0255417Y0125094D02*
X0249417Y0125094D01*
X0249417Y0115094D02*
X0255417Y0115094D01*
X0255417Y0155094D02*
X0249417Y0155094D01*
X0249417Y0165094D02*
X0255417Y0165094D01*
X0255417Y0175094D02*
X0249417Y0175094D01*
X0249417Y0185094D02*
X0255417Y0185094D01*
X0255417Y0195094D02*
X0249417Y0195094D01*
X0249417Y0205094D02*
X0255417Y0205094D01*
X0255417Y0215094D02*
X0249417Y0215094D01*
X0249417Y0225094D02*
X0255417Y0225094D01*
X0255417Y0235094D02*
X0249417Y0235094D01*
X0249417Y0245094D02*
X0255417Y0245094D01*
X0255417Y0255094D02*
X0249417Y0255094D01*
X0249417Y0265094D02*
X0255417Y0265094D01*
X0255417Y0275094D02*
X0249417Y0275094D01*
X0249417Y0285094D02*
X0255417Y0285094D01*
X0255417Y0295094D02*
X0249417Y0295094D01*
X0249417Y0305094D02*
X0255417Y0305094D01*
X0311701Y0322260D02*
X0317701Y0322260D01*
X0317701Y0332260D02*
X0311701Y0332260D01*
X0311701Y0342260D02*
X0317701Y0342260D01*
X0317701Y0352260D02*
X0311701Y0352260D01*
X0311701Y0362260D02*
X0317701Y0362260D01*
X0317701Y0372260D02*
X0311701Y0372260D01*
X0144906Y0304976D02*
X0138906Y0304976D01*
X0138906Y0294976D02*
X0144906Y0294976D01*
X0144906Y0284976D02*
X0138906Y0284976D01*
X0138906Y0274976D02*
X0144906Y0274976D01*
X0144906Y0264976D02*
X0138906Y0264976D01*
X0138906Y0254976D02*
X0144906Y0254976D01*
X0144906Y0244976D02*
X0138906Y0244976D01*
X0138906Y0234976D02*
X0144906Y0234976D01*
X0144906Y0224976D02*
X0138906Y0224976D01*
X0138906Y0214976D02*
X0144906Y0214976D01*
X0144906Y0204976D02*
X0138906Y0204976D01*
X0138906Y0194976D02*
X0144906Y0194976D01*
X0144906Y0184976D02*
X0138906Y0184976D01*
X0138906Y0174976D02*
X0144906Y0174976D01*
X0144906Y0164976D02*
X0138906Y0164976D01*
X0138906Y0154976D02*
X0144906Y0154976D01*
X0144906Y0144976D02*
X0138906Y0144976D01*
X0138906Y0134976D02*
X0144906Y0134976D01*
X0144906Y0124976D02*
X0138906Y0124976D01*
X0138906Y0114976D02*
X0144906Y0114976D01*
D15*
X0016748Y0016748D03*
X0016748Y0378953D03*
X0378953Y0378953D03*
X0378953Y0016748D03*
D16*
X0116192Y0169780D02*
X0111792Y0169780D01*
X0111792Y0189780D02*
X0116192Y0189780D01*
D17*
X0330035Y0253047D02*
X0337713Y0253047D01*
X0355626Y0253047D02*
X0363303Y0253047D01*
D18*
X0167260Y0305016D03*
D19*
X0167260Y0295016D03*
X0167260Y0285016D03*
X0167260Y0275016D03*
X0167260Y0265016D03*
X0167260Y0255016D03*
X0167260Y0245016D03*
X0167260Y0235016D03*
X0167260Y0225016D03*
X0167260Y0215016D03*
X0167260Y0205016D03*
X0167260Y0195016D03*
X0167260Y0185016D03*
X0167260Y0175016D03*
X0167260Y0165016D03*
X0167260Y0155016D03*
X0167260Y0145016D03*
X0167260Y0135016D03*
X0167260Y0125016D03*
X0167260Y0115016D03*
X0227260Y0115016D03*
X0227260Y0125016D03*
X0227260Y0135016D03*
X0227260Y0145016D03*
X0227260Y0155016D03*
X0227260Y0165016D03*
X0227260Y0175016D03*
X0227260Y0185016D03*
X0227260Y0195016D03*
X0227260Y0205016D03*
X0227260Y0215016D03*
X0227260Y0225016D03*
X0227260Y0235016D03*
X0227260Y0245016D03*
X0227260Y0255016D03*
X0227260Y0265016D03*
X0227260Y0275016D03*
X0227260Y0285016D03*
X0227260Y0295016D03*
X0227260Y0305016D03*
D20*
X0089661Y0367339D03*
X0069976Y0367339D03*
X0309858Y0071000D03*
X0329543Y0071000D03*
D21*
X0329465Y0071079D01*
X0329465Y0116354D01*
X0329465Y0126354D02*
X0310882Y0126354D01*
X0287142Y0150094D01*
X0287142Y0172063D01*
X0284465Y0174740D01*
X0252772Y0174740D01*
X0252417Y0175094D01*
X0227260Y0175016D01*
X0227260Y0185016D02*
X0252417Y0185094D01*
X0252417Y0195094D02*
X0227260Y0195016D01*
X0227260Y0205016D02*
X0252417Y0205094D01*
X0300724Y0205094D01*
X0329465Y0176354D01*
X0329465Y0166354D02*
X0317417Y0166354D01*
X0317378Y0166394D01*
X0316787Y0166394D01*
X0305803Y0155409D01*
X0305803Y0145409D02*
X0314937Y0136276D01*
X0315606Y0136276D01*
X0315685Y0136354D01*
X0329465Y0136354D01*
X0348559Y0123874D02*
X0348559Y0066472D01*
X0336118Y0054031D01*
X0293953Y0054031D01*
X0256039Y0091945D01*
X0256039Y0111472D01*
X0252417Y0115094D01*
X0227260Y0115016D01*
X0227260Y0125016D02*
X0252417Y0125094D01*
X0252417Y0135094D02*
X0227260Y0135016D01*
X0227260Y0145016D02*
X0252417Y0145094D01*
X0252417Y0155094D02*
X0227260Y0155016D01*
X0227260Y0165016D02*
X0252417Y0165094D01*
X0272772Y0158008D02*
X0273362Y0157693D01*
X0273362Y0092181D01*
X0255016Y0041315D02*
X0196000Y0100331D01*
X0196000Y0126276D01*
X0167260Y0155016D01*
X0141906Y0154976D01*
X0141906Y0164976D02*
X0167260Y0165016D01*
X0167260Y0175016D02*
X0141906Y0174976D01*
X0141827Y0174898D01*
X0132929Y0174898D01*
X0127811Y0169780D01*
X0113992Y0169780D01*
X0111472Y0167260D01*
X0076591Y0167260D01*
X0076787Y0197299D02*
X0106472Y0197299D01*
X0113992Y0189780D01*
X0126630Y0189780D01*
X0131512Y0184898D01*
X0141827Y0184898D01*
X0141906Y0184976D01*
X0167260Y0185016D01*
X0167260Y0205016D02*
X0227260Y0225016D01*
X0252417Y0225094D01*
X0252732Y0225409D01*
X0277535Y0225409D01*
X0277988Y0225862D01*
X0319957Y0225862D01*
X0359465Y0186354D01*
X0359465Y0176354D02*
X0348795Y0176354D01*
X0359465Y0166354D02*
X0373047Y0166354D01*
X0382417Y0156984D01*
X0382417Y0146984D02*
X0371787Y0136354D01*
X0359465Y0136354D01*
X0359465Y0126354D02*
X0351039Y0126354D01*
X0348559Y0123874D01*
X0359465Y0116354D02*
X0359465Y0065764D01*
X0335016Y0041315D01*
X0255016Y0041315D01*
X0167260Y0115016D02*
X0141906Y0114976D01*
X0141906Y0124976D02*
X0167260Y0125016D01*
X0167260Y0135016D02*
X0141906Y0134976D01*
X0141748Y0135134D01*
X0120252Y0135134D01*
X0109701Y0124583D01*
X0109701Y0097693D01*
X0141906Y0144976D02*
X0167260Y0145016D01*
X0167260Y0205016D02*
X0144110Y0204980D01*
X0118989Y0204980D01*
X0090567Y0233402D01*
X0089661Y0367339D01*
X0069898Y0305213D02*
X0057260Y0305213D01*
X0057260Y0305331D01*
X0057063Y0279622D02*
X0069110Y0279819D01*
X0070567Y0254268D02*
X0057299Y0254071D01*
X0110567Y0254268D02*
X0110567Y0257457D01*
X0128520Y0275409D01*
X0141472Y0275409D01*
X0141906Y0274976D01*
X0167260Y0275016D01*
X0167260Y0285016D02*
X0141906Y0284976D01*
X0124780Y0284976D01*
X0119622Y0279819D01*
X0109110Y0279819D01*
X0124346Y0295724D02*
X0114858Y0305213D01*
X0109898Y0305213D01*
X0124346Y0295724D02*
X0141157Y0295724D01*
X0141906Y0294976D01*
X0167260Y0295016D01*
X0167260Y0305016D02*
X0186748Y0324504D01*
X0257772Y0324504D01*
X0280961Y0301315D01*
X0311394Y0301315D01*
X0311394Y0307693D01*
X0314898Y0311197D01*
X0314898Y0322063D01*
X0314701Y0322260D01*
X0314898Y0332063D02*
X0314701Y0332260D01*
X0314898Y0332063D02*
X0334465Y0332063D01*
X0342811Y0323717D01*
X0342811Y0300409D01*
X0326630Y0284228D01*
X0297417Y0284228D01*
X0281236Y0268047D01*
X0281236Y0253126D01*
X0281236Y0229110D01*
X0277988Y0225862D01*
X0252417Y0235094D02*
X0227260Y0235016D01*
X0227260Y0245016D02*
X0252417Y0245094D01*
X0252417Y0255094D02*
X0227260Y0255016D01*
X0227260Y0265016D02*
X0252417Y0265094D01*
X0252417Y0275094D02*
X0227260Y0275016D01*
X0227260Y0285016D02*
X0252417Y0285094D01*
X0252417Y0295094D02*
X0227260Y0295016D01*
X0227260Y0305016D02*
X0252417Y0305094D01*
X0278953Y0331394D02*
X0299819Y0352260D01*
X0314701Y0352260D01*
X0314701Y0362260D02*
X0298362Y0362260D01*
X0298283Y0362181D01*
X0311394Y0271315D02*
X0311236Y0253126D01*
X0333874Y0253047D01*
X0167260Y0255016D02*
X0141906Y0254976D01*
X0141906Y0264976D02*
X0167260Y0265016D01*
X0167260Y0245016D02*
X0141906Y0244976D01*
X0141906Y0234976D02*
X0167260Y0235016D01*
X0167260Y0225016D02*
X0141906Y0224976D01*
X0141906Y0214976D02*
X0167260Y0215016D01*
X0144110Y0204980D02*
X0141906Y0204976D01*
X0141906Y0304976D02*
X0167260Y0305016D01*
D22*
X0278953Y0331394D03*
X0298283Y0362181D03*
X0348795Y0176354D03*
X0272772Y0158008D03*
X0273362Y0092181D03*
X0070803Y0095724D03*
M02*
