G75*
%MOIN*%
%OFA0B0*%
%FSLAX25Y25*%
%IPPOS*%
%LPD*%
%AMOC8*
5,1,8,0,0,1.08239X$1,22.5*
%
%ADD10OC8,0.06000*%
%ADD11C,0.10800*%
%ADD12OC8,0.10800*%
%ADD13C,0.06000*%
%ADD14C,0.06800*%
%ADD15C,0.27800*%
%ADD16C,0.05200*%
%ADD17C,0.08477*%
%ADD18R,0.06700X0.06700*%
%ADD19C,0.06700*%
%ADD20OC8,0.08674*%
%ADD21C,0.04762*%
D10*
X0056591Y0167260D03*
X0076591Y0167260D03*
X0076787Y0197299D03*
X0056787Y0197299D03*
X0057299Y0254071D03*
X0047299Y0254071D03*
X0070567Y0254268D03*
X0069110Y0279819D03*
X0057063Y0279622D03*
X0047063Y0279622D03*
X0047260Y0305331D03*
X0057260Y0305331D03*
X0069898Y0305213D03*
X0109898Y0305213D03*
X0109110Y0279819D03*
X0110567Y0254268D03*
X0281236Y0253126D03*
X0311236Y0253126D03*
X0311394Y0271315D03*
X0311394Y0301315D03*
D11*
X0109701Y0097693D03*
D12*
X0089701Y0097693D03*
D13*
X0326865Y0116354D02*
X0332065Y0116354D01*
X0332065Y0126354D02*
X0326865Y0126354D01*
X0326865Y0136354D02*
X0332065Y0136354D01*
X0332065Y0146354D02*
X0326865Y0146354D01*
X0326865Y0156354D02*
X0332065Y0156354D01*
X0332065Y0166354D02*
X0326865Y0166354D01*
X0326865Y0176354D02*
X0332065Y0176354D01*
X0332065Y0186354D02*
X0326865Y0186354D01*
X0356865Y0186354D02*
X0362065Y0186354D01*
X0362065Y0176354D02*
X0356865Y0176354D01*
X0356865Y0166354D02*
X0362065Y0166354D01*
X0362065Y0156354D02*
X0356865Y0156354D01*
X0356865Y0146354D02*
X0362065Y0146354D01*
X0362065Y0136354D02*
X0356865Y0136354D01*
X0356865Y0126354D02*
X0362065Y0126354D01*
X0362065Y0116354D02*
X0356865Y0116354D01*
D14*
X0379417Y0146984D02*
X0385417Y0146984D01*
X0385417Y0156984D02*
X0379417Y0156984D01*
X0308803Y0155409D02*
X0302803Y0155409D01*
X0302803Y0145409D02*
X0308803Y0145409D01*
X0255417Y0145094D02*
X0249417Y0145094D01*
X0249417Y0135094D02*
X0255417Y0135094D01*
X0255417Y0125094D02*
X0249417Y0125094D01*
X0249417Y0115094D02*
X0255417Y0115094D01*
X0255417Y0155094D02*
X0249417Y0155094D01*
X0249417Y0165094D02*
X0255417Y0165094D01*
X0255417Y0175094D02*
X0249417Y0175094D01*
X0249417Y0185094D02*
X0255417Y0185094D01*
X0255417Y0195094D02*
X0249417Y0195094D01*
X0249417Y0205094D02*
X0255417Y0205094D01*
X0255417Y0215094D02*
X0249417Y0215094D01*
X0249417Y0225094D02*
X0255417Y0225094D01*
X0255417Y0235094D02*
X0249417Y0235094D01*
X0249417Y0245094D02*
X0255417Y0245094D01*
X0255417Y0255094D02*
X0249417Y0255094D01*
X0249417Y0265094D02*
X0255417Y0265094D01*
X0255417Y0275094D02*
X0249417Y0275094D01*
X0249417Y0285094D02*
X0255417Y0285094D01*
X0255417Y0295094D02*
X0249417Y0295094D01*
X0249417Y0305094D02*
X0255417Y0305094D01*
X0311701Y0322260D02*
X0317701Y0322260D01*
X0317701Y0332260D02*
X0311701Y0332260D01*
X0311701Y0342260D02*
X0317701Y0342260D01*
X0317701Y0352260D02*
X0311701Y0352260D01*
X0311701Y0362260D02*
X0317701Y0362260D01*
X0317701Y0372260D02*
X0311701Y0372260D01*
X0144906Y0304976D02*
X0138906Y0304976D01*
X0138906Y0294976D02*
X0144906Y0294976D01*
X0144906Y0284976D02*
X0138906Y0284976D01*
X0138906Y0274976D02*
X0144906Y0274976D01*
X0144906Y0264976D02*
X0138906Y0264976D01*
X0138906Y0254976D02*
X0144906Y0254976D01*
X0144906Y0244976D02*
X0138906Y0244976D01*
X0138906Y0234976D02*
X0144906Y0234976D01*
X0144906Y0224976D02*
X0138906Y0224976D01*
X0138906Y0214976D02*
X0144906Y0214976D01*
X0144906Y0204976D02*
X0138906Y0204976D01*
X0138906Y0194976D02*
X0144906Y0194976D01*
X0144906Y0184976D02*
X0138906Y0184976D01*
X0138906Y0174976D02*
X0144906Y0174976D01*
X0144906Y0164976D02*
X0138906Y0164976D01*
X0138906Y0154976D02*
X0144906Y0154976D01*
X0144906Y0144976D02*
X0138906Y0144976D01*
X0138906Y0134976D02*
X0144906Y0134976D01*
X0144906Y0124976D02*
X0138906Y0124976D01*
X0138906Y0114976D02*
X0144906Y0114976D01*
D15*
X0016748Y0016748D03*
X0016748Y0378953D03*
X0378953Y0378953D03*
X0378953Y0016748D03*
D16*
X0116192Y0169780D02*
X0111792Y0169780D01*
X0111792Y0189780D02*
X0116192Y0189780D01*
D17*
X0330035Y0253047D02*
X0337713Y0253047D01*
X0355626Y0253047D02*
X0363303Y0253047D01*
D18*
X0167260Y0305016D03*
D19*
X0167260Y0295016D03*
X0167260Y0285016D03*
X0167260Y0275016D03*
X0167260Y0265016D03*
X0167260Y0255016D03*
X0167260Y0245016D03*
X0167260Y0235016D03*
X0167260Y0225016D03*
X0167260Y0215016D03*
X0167260Y0205016D03*
X0167260Y0195016D03*
X0167260Y0185016D03*
X0167260Y0175016D03*
X0167260Y0165016D03*
X0167260Y0155016D03*
X0167260Y0145016D03*
X0167260Y0135016D03*
X0167260Y0125016D03*
X0167260Y0115016D03*
X0227260Y0115016D03*
X0227260Y0125016D03*
X0227260Y0135016D03*
X0227260Y0145016D03*
X0227260Y0155016D03*
X0227260Y0165016D03*
X0227260Y0175016D03*
X0227260Y0185016D03*
X0227260Y0195016D03*
X0227260Y0205016D03*
X0227260Y0215016D03*
X0227260Y0225016D03*
X0227260Y0235016D03*
X0227260Y0245016D03*
X0227260Y0255016D03*
X0227260Y0265016D03*
X0227260Y0275016D03*
X0227260Y0285016D03*
X0227260Y0295016D03*
X0227260Y0305016D03*
D20*
X0089661Y0367339D03*
X0069976Y0367339D03*
X0309858Y0071000D03*
X0329543Y0071000D03*
D21*
X0273362Y0092181D03*
X0272772Y0158008D03*
X0348795Y0176354D03*
X0278953Y0331394D03*
X0298283Y0362181D03*
X0070803Y0095724D03*
M02*
