G75*
%MOIN*%
%OFA0B0*%
%FSLAX25Y25*%
%IPPOS*%
%LPD*%
%AMOC8*
5,1,8,0,0,1.08239X$1,22.5*
%
%ADD10OC8,0.05200*%
%ADD11C,0.10000*%
%ADD12OC8,0.10000*%
%ADD13C,0.05200*%
%ADD14C,0.06000*%
%ADD15C,0.27000*%
%ADD16C,0.04400*%
%ADD17C,0.07677*%
%ADD18R,0.05900X0.05900*%
%ADD19C,0.05900*%
%ADD20OC8,0.07874*%
%ADD21C,0.01600*%
%ADD22C,0.03962*%
%ADD23C,0.02400*%
D10*
X0056591Y0167260D03*
X0076591Y0167260D03*
X0076787Y0197299D03*
X0056787Y0197299D03*
X0057299Y0254071D03*
X0047299Y0254071D03*
X0070567Y0254268D03*
X0069110Y0279819D03*
X0057063Y0279622D03*
X0047063Y0279622D03*
X0047260Y0305331D03*
X0057260Y0305331D03*
X0069898Y0305213D03*
X0109898Y0305213D03*
X0109110Y0279819D03*
X0110567Y0254268D03*
X0281236Y0253126D03*
X0311236Y0253126D03*
X0311394Y0271315D03*
X0311394Y0301315D03*
D11*
X0109701Y0097693D03*
D12*
X0089701Y0097693D03*
D13*
X0326865Y0116354D02*
X0332065Y0116354D01*
X0332065Y0126354D02*
X0326865Y0126354D01*
X0326865Y0136354D02*
X0332065Y0136354D01*
X0332065Y0146354D02*
X0326865Y0146354D01*
X0326865Y0156354D02*
X0332065Y0156354D01*
X0332065Y0166354D02*
X0326865Y0166354D01*
X0326865Y0176354D02*
X0332065Y0176354D01*
X0332065Y0186354D02*
X0326865Y0186354D01*
X0356865Y0186354D02*
X0362065Y0186354D01*
X0362065Y0176354D02*
X0356865Y0176354D01*
X0356865Y0166354D02*
X0362065Y0166354D01*
X0362065Y0156354D02*
X0356865Y0156354D01*
X0356865Y0146354D02*
X0362065Y0146354D01*
X0362065Y0136354D02*
X0356865Y0136354D01*
X0356865Y0126354D02*
X0362065Y0126354D01*
X0362065Y0116354D02*
X0356865Y0116354D01*
D14*
X0379417Y0146984D02*
X0385417Y0146984D01*
X0385417Y0156984D02*
X0379417Y0156984D01*
X0308803Y0155409D02*
X0302803Y0155409D01*
X0302803Y0145409D02*
X0308803Y0145409D01*
X0255417Y0145094D02*
X0249417Y0145094D01*
X0249417Y0135094D02*
X0255417Y0135094D01*
X0255417Y0125094D02*
X0249417Y0125094D01*
X0249417Y0115094D02*
X0255417Y0115094D01*
X0255417Y0155094D02*
X0249417Y0155094D01*
X0249417Y0165094D02*
X0255417Y0165094D01*
X0255417Y0175094D02*
X0249417Y0175094D01*
X0249417Y0185094D02*
X0255417Y0185094D01*
X0255417Y0195094D02*
X0249417Y0195094D01*
X0249417Y0205094D02*
X0255417Y0205094D01*
X0255417Y0215094D02*
X0249417Y0215094D01*
X0249417Y0225094D02*
X0255417Y0225094D01*
X0255417Y0235094D02*
X0249417Y0235094D01*
X0249417Y0245094D02*
X0255417Y0245094D01*
X0255417Y0255094D02*
X0249417Y0255094D01*
X0249417Y0265094D02*
X0255417Y0265094D01*
X0255417Y0275094D02*
X0249417Y0275094D01*
X0249417Y0285094D02*
X0255417Y0285094D01*
X0255417Y0295094D02*
X0249417Y0295094D01*
X0249417Y0305094D02*
X0255417Y0305094D01*
X0311701Y0322260D02*
X0317701Y0322260D01*
X0317701Y0332260D02*
X0311701Y0332260D01*
X0311701Y0342260D02*
X0317701Y0342260D01*
X0317701Y0352260D02*
X0311701Y0352260D01*
X0311701Y0362260D02*
X0317701Y0362260D01*
X0317701Y0372260D02*
X0311701Y0372260D01*
X0144906Y0304976D02*
X0138906Y0304976D01*
X0138906Y0294976D02*
X0144906Y0294976D01*
X0144906Y0284976D02*
X0138906Y0284976D01*
X0138906Y0274976D02*
X0144906Y0274976D01*
X0144906Y0264976D02*
X0138906Y0264976D01*
X0138906Y0254976D02*
X0144906Y0254976D01*
X0144906Y0244976D02*
X0138906Y0244976D01*
X0138906Y0234976D02*
X0144906Y0234976D01*
X0144906Y0224976D02*
X0138906Y0224976D01*
X0138906Y0214976D02*
X0144906Y0214976D01*
X0144906Y0204976D02*
X0138906Y0204976D01*
X0138906Y0194976D02*
X0144906Y0194976D01*
X0144906Y0184976D02*
X0138906Y0184976D01*
X0138906Y0174976D02*
X0144906Y0174976D01*
X0144906Y0164976D02*
X0138906Y0164976D01*
X0138906Y0154976D02*
X0144906Y0154976D01*
X0144906Y0144976D02*
X0138906Y0144976D01*
X0138906Y0134976D02*
X0144906Y0134976D01*
X0144906Y0124976D02*
X0138906Y0124976D01*
X0138906Y0114976D02*
X0144906Y0114976D01*
D15*
X0016748Y0016748D03*
X0016748Y0378953D03*
X0378953Y0378953D03*
X0378953Y0016748D03*
D16*
X0116192Y0169780D02*
X0111792Y0169780D01*
X0111792Y0189780D02*
X0116192Y0189780D01*
D17*
X0330035Y0253047D02*
X0337713Y0253047D01*
X0355626Y0253047D02*
X0363303Y0253047D01*
D18*
X0167260Y0305016D03*
D19*
X0167260Y0295016D03*
X0167260Y0285016D03*
X0167260Y0275016D03*
X0167260Y0265016D03*
X0167260Y0255016D03*
X0167260Y0245016D03*
X0167260Y0235016D03*
X0167260Y0225016D03*
X0167260Y0215016D03*
X0167260Y0205016D03*
X0167260Y0195016D03*
X0167260Y0185016D03*
X0167260Y0175016D03*
X0167260Y0165016D03*
X0167260Y0155016D03*
X0167260Y0145016D03*
X0167260Y0135016D03*
X0167260Y0125016D03*
X0167260Y0115016D03*
X0227260Y0115016D03*
X0227260Y0125016D03*
X0227260Y0135016D03*
X0227260Y0145016D03*
X0227260Y0155016D03*
X0227260Y0165016D03*
X0227260Y0175016D03*
X0227260Y0185016D03*
X0227260Y0195016D03*
X0227260Y0205016D03*
X0227260Y0215016D03*
X0227260Y0225016D03*
X0227260Y0235016D03*
X0227260Y0245016D03*
X0227260Y0255016D03*
X0227260Y0265016D03*
X0227260Y0275016D03*
X0227260Y0285016D03*
X0227260Y0295016D03*
X0227260Y0305016D03*
D20*
X0089661Y0367339D03*
X0069976Y0367339D03*
X0309858Y0071000D03*
X0329543Y0071000D03*
D21*
X0335176Y0066539D02*
X0389901Y0066539D01*
X0389901Y0068137D02*
X0336680Y0068137D01*
X0336680Y0068044D02*
X0332500Y0063863D01*
X0326587Y0063863D01*
X0322406Y0068044D01*
X0322406Y0073956D01*
X0326587Y0078137D01*
X0332500Y0078137D01*
X0336680Y0073956D01*
X0336680Y0068044D01*
X0336680Y0069736D02*
X0389901Y0069736D01*
X0389901Y0071334D02*
X0336680Y0071334D01*
X0336680Y0072933D02*
X0389901Y0072933D01*
X0389901Y0074532D02*
X0336105Y0074532D01*
X0334507Y0076130D02*
X0389901Y0076130D01*
X0389901Y0077729D02*
X0332908Y0077729D01*
X0326179Y0077729D02*
X0005800Y0077729D01*
X0005800Y0079327D02*
X0389901Y0079327D01*
X0389901Y0080926D02*
X0005800Y0080926D01*
X0005800Y0082524D02*
X0389901Y0082524D01*
X0389901Y0084123D02*
X0317911Y0084123D01*
X0318571Y0084396D02*
X0319809Y0085634D01*
X0351065Y0116889D01*
X0351065Y0115201D01*
X0351948Y0113069D01*
X0353579Y0111437D01*
X0355711Y0110554D01*
X0363218Y0110554D01*
X0365350Y0111437D01*
X0366982Y0113069D01*
X0367865Y0115201D01*
X0367865Y0117508D01*
X0366982Y0119640D01*
X0365350Y0121271D01*
X0365150Y0121354D01*
X0365350Y0121437D01*
X0366982Y0123069D01*
X0367865Y0125201D01*
X0367865Y0127508D01*
X0366982Y0129640D01*
X0365350Y0131271D01*
X0365150Y0131354D01*
X0365350Y0131437D01*
X0366982Y0133069D01*
X0367865Y0135201D01*
X0367865Y0137508D01*
X0366982Y0139640D01*
X0365350Y0141271D01*
X0363288Y0142125D01*
X0363754Y0142277D01*
X0364371Y0142591D01*
X0364931Y0142998D01*
X0365421Y0143488D01*
X0365828Y0144048D01*
X0366142Y0144665D01*
X0366356Y0145324D01*
X0366465Y0146008D01*
X0366465Y0146354D01*
X0359465Y0146354D01*
X0359465Y0146354D01*
X0366465Y0146354D01*
X0366465Y0146701D01*
X0366356Y0147385D01*
X0366142Y0148043D01*
X0365828Y0148660D01*
X0365421Y0149221D01*
X0364931Y0149710D01*
X0364371Y0150118D01*
X0363754Y0150432D01*
X0363095Y0150646D01*
X0362411Y0150754D01*
X0359465Y0150754D01*
X0359465Y0146354D01*
X0359464Y0146354D01*
X0359464Y0150754D01*
X0356518Y0150754D01*
X0355834Y0150646D01*
X0355176Y0150432D01*
X0354558Y0150118D01*
X0353998Y0149710D01*
X0353508Y0149221D01*
X0353195Y0148790D01*
X0353195Y0153919D01*
X0353508Y0153488D01*
X0353998Y0152998D01*
X0354558Y0152591D01*
X0355176Y0152277D01*
X0355834Y0152063D01*
X0356518Y0151954D01*
X0359464Y0151954D01*
X0359464Y0156354D01*
X0359465Y0156354D01*
X0359465Y0156354D01*
X0366465Y0156354D01*
X0366465Y0156008D01*
X0366356Y0155324D01*
X0366142Y0154665D01*
X0365828Y0154048D01*
X0365421Y0153488D01*
X0364931Y0152998D01*
X0364371Y0152591D01*
X0363754Y0152277D01*
X0363095Y0152063D01*
X0362411Y0151954D01*
X0359465Y0151954D01*
X0359465Y0156354D01*
X0366465Y0156354D01*
X0366465Y0156701D01*
X0366356Y0157385D01*
X0366142Y0158043D01*
X0365828Y0158660D01*
X0365421Y0159221D01*
X0364931Y0159710D01*
X0364371Y0160118D01*
X0363754Y0160432D01*
X0363288Y0160583D01*
X0365350Y0161437D01*
X0366982Y0163069D01*
X0367865Y0165201D01*
X0367865Y0167508D01*
X0366982Y0169640D01*
X0365350Y0171271D01*
X0365150Y0171354D01*
X0365350Y0171437D01*
X0366982Y0173069D01*
X0367865Y0175201D01*
X0367865Y0177508D01*
X0366982Y0179640D01*
X0365350Y0181271D01*
X0365150Y0181354D01*
X0365350Y0181437D01*
X0366982Y0183069D01*
X0367865Y0185201D01*
X0367865Y0187508D01*
X0366982Y0189640D01*
X0365350Y0191271D01*
X0363218Y0192154D01*
X0355711Y0192154D01*
X0353579Y0191271D01*
X0351948Y0189640D01*
X0351065Y0187508D01*
X0351065Y0185201D01*
X0351948Y0183069D01*
X0353579Y0181437D01*
X0353780Y0181354D01*
X0353579Y0181271D01*
X0352392Y0180084D01*
X0351730Y0180747D01*
X0349826Y0181535D01*
X0347765Y0181535D01*
X0345860Y0180747D01*
X0344403Y0179289D01*
X0343614Y0177385D01*
X0343614Y0175324D01*
X0344395Y0173438D01*
X0344395Y0122665D01*
X0337865Y0116134D01*
X0337865Y0117508D01*
X0336982Y0119640D01*
X0335350Y0121271D01*
X0335150Y0121354D01*
X0335350Y0121437D01*
X0336982Y0123069D01*
X0337865Y0125201D01*
X0337865Y0127508D01*
X0336982Y0129640D01*
X0335350Y0131271D01*
X0335150Y0131354D01*
X0335350Y0131437D01*
X0336982Y0133069D01*
X0337865Y0135201D01*
X0337865Y0137508D01*
X0336982Y0139640D01*
X0335350Y0141271D01*
X0333288Y0142125D01*
X0333754Y0142277D01*
X0334371Y0142591D01*
X0334931Y0142998D01*
X0335421Y0143488D01*
X0335828Y0144048D01*
X0336142Y0144665D01*
X0336356Y0145324D01*
X0336465Y0146008D01*
X0336465Y0146354D01*
X0329465Y0146354D01*
X0329465Y0146354D01*
X0336465Y0146354D01*
X0336465Y0146701D01*
X0336356Y0147385D01*
X0336142Y0148043D01*
X0335828Y0148660D01*
X0335421Y0149221D01*
X0334931Y0149710D01*
X0334371Y0150118D01*
X0333754Y0150432D01*
X0333095Y0150646D01*
X0332411Y0150754D01*
X0329465Y0150754D01*
X0329465Y0146354D01*
X0329464Y0146354D01*
X0322465Y0146354D01*
X0322465Y0146008D01*
X0322573Y0145324D01*
X0322787Y0144665D01*
X0323101Y0144048D01*
X0323508Y0143488D01*
X0323998Y0142998D01*
X0324558Y0142591D01*
X0325176Y0142277D01*
X0325641Y0142125D01*
X0323579Y0141271D01*
X0321948Y0139640D01*
X0321065Y0137508D01*
X0321065Y0135201D01*
X0321948Y0133069D01*
X0323579Y0131437D01*
X0323780Y0131354D01*
X0323579Y0131271D01*
X0321948Y0129640D01*
X0321065Y0127508D01*
X0321065Y0125201D01*
X0321948Y0123069D01*
X0323579Y0121437D01*
X0323780Y0121354D01*
X0323579Y0121271D01*
X0321948Y0119640D01*
X0321065Y0117508D01*
X0321065Y0115201D01*
X0321948Y0113069D01*
X0323579Y0111437D01*
X0325711Y0110554D01*
X0332285Y0110554D01*
X0316079Y0094349D01*
X0282998Y0127429D01*
X0281760Y0128667D01*
X0280143Y0129337D01*
X0272531Y0129337D01*
X0272151Y0129494D01*
X0259785Y0129494D01*
X0259185Y0130094D01*
X0260673Y0131582D01*
X0261617Y0133861D01*
X0261617Y0136328D01*
X0260673Y0138606D01*
X0259185Y0140094D01*
X0260673Y0141582D01*
X0261617Y0143861D01*
X0261617Y0146328D01*
X0260673Y0148606D01*
X0259185Y0150094D01*
X0260673Y0151582D01*
X0261617Y0153861D01*
X0261617Y0156328D01*
X0260673Y0158606D01*
X0259185Y0160094D01*
X0260673Y0161582D01*
X0261617Y0163861D01*
X0261617Y0166328D01*
X0260673Y0168606D01*
X0259185Y0170094D01*
X0260673Y0171582D01*
X0261617Y0173861D01*
X0261617Y0176328D01*
X0260673Y0178606D01*
X0259185Y0180094D01*
X0260673Y0181582D01*
X0261617Y0183861D01*
X0261617Y0186328D01*
X0260673Y0188606D01*
X0259185Y0190094D01*
X0260673Y0191582D01*
X0261617Y0193861D01*
X0261617Y0196328D01*
X0260673Y0198606D01*
X0259185Y0200094D01*
X0260673Y0201582D01*
X0261617Y0203861D01*
X0261617Y0206328D01*
X0260673Y0208606D01*
X0258929Y0210351D01*
X0257688Y0210865D01*
X0257933Y0210989D01*
X0258544Y0211433D01*
X0259079Y0211967D01*
X0259523Y0212579D01*
X0259866Y0213252D01*
X0260099Y0213970D01*
X0260217Y0214717D01*
X0260217Y0214894D01*
X0252617Y0214894D01*
X0252617Y0215294D01*
X0260217Y0215294D01*
X0260217Y0215472D01*
X0260099Y0216218D01*
X0259866Y0216937D01*
X0259523Y0217610D01*
X0259079Y0218221D01*
X0258544Y0218756D01*
X0257933Y0219200D01*
X0257688Y0219324D01*
X0258929Y0219838D01*
X0260673Y0221582D01*
X0261617Y0223861D01*
X0261617Y0226328D01*
X0260673Y0228606D01*
X0259185Y0230094D01*
X0260673Y0231582D01*
X0261617Y0233861D01*
X0261617Y0236328D01*
X0260673Y0238606D01*
X0259185Y0240094D01*
X0260673Y0241582D01*
X0261617Y0243861D01*
X0261617Y0246328D01*
X0260673Y0248606D01*
X0259185Y0250094D01*
X0260673Y0251582D01*
X0261617Y0253861D01*
X0261617Y0256328D01*
X0260673Y0258606D01*
X0259185Y0260094D01*
X0260673Y0261582D01*
X0261617Y0263861D01*
X0261617Y0266328D01*
X0260673Y0268606D01*
X0259185Y0270094D01*
X0260673Y0271582D01*
X0261617Y0273861D01*
X0261617Y0276328D01*
X0260673Y0278606D01*
X0259185Y0280094D01*
X0260673Y0281582D01*
X0261617Y0283861D01*
X0261617Y0286328D01*
X0260673Y0288606D01*
X0259185Y0290094D01*
X0260673Y0291582D01*
X0261617Y0293861D01*
X0261617Y0296328D01*
X0260673Y0298606D01*
X0259185Y0300094D01*
X0260673Y0301582D01*
X0261617Y0303861D01*
X0261617Y0306328D01*
X0261106Y0307561D01*
X0279758Y0326213D01*
X0279983Y0326213D01*
X0281888Y0327001D01*
X0283345Y0328459D01*
X0284134Y0330363D01*
X0284134Y0332424D01*
X0283345Y0334329D01*
X0281888Y0335786D01*
X0279983Y0336575D01*
X0277922Y0336575D01*
X0276018Y0335786D01*
X0274560Y0334329D01*
X0273946Y0332846D01*
X0252395Y0311294D01*
X0248184Y0311294D01*
X0245905Y0310351D01*
X0244161Y0308606D01*
X0243217Y0306328D01*
X0243217Y0303861D01*
X0244161Y0301582D01*
X0245649Y0300094D01*
X0245009Y0299454D01*
X0241324Y0299454D01*
X0241069Y0299709D01*
X0241069Y0317721D01*
X0281130Y0357781D01*
X0295367Y0357781D01*
X0297253Y0357000D01*
X0299314Y0357000D01*
X0301218Y0357789D01*
X0302676Y0359246D01*
X0303465Y0361151D01*
X0303465Y0363212D01*
X0302676Y0365116D01*
X0301218Y0366573D01*
X0299314Y0367362D01*
X0297253Y0367362D01*
X0295367Y0366581D01*
X0278432Y0366581D01*
X0276815Y0365911D01*
X0234177Y0323273D01*
X0232939Y0322036D01*
X0232269Y0320419D01*
X0232269Y0308704D01*
X0230744Y0310229D01*
X0228483Y0311166D01*
X0226037Y0311166D01*
X0223776Y0310229D01*
X0222046Y0308499D01*
X0221110Y0306239D01*
X0221110Y0303792D01*
X0222046Y0301532D01*
X0223562Y0300016D01*
X0222046Y0298499D01*
X0221110Y0296239D01*
X0221110Y0293792D01*
X0222046Y0291532D01*
X0223562Y0290016D01*
X0222046Y0288499D01*
X0221110Y0286239D01*
X0221110Y0283792D01*
X0222046Y0281532D01*
X0223562Y0280016D01*
X0222046Y0278499D01*
X0221110Y0276239D01*
X0221110Y0273792D01*
X0222046Y0271532D01*
X0223562Y0270016D01*
X0222046Y0268499D01*
X0221110Y0266239D01*
X0221110Y0263792D01*
X0222046Y0261532D01*
X0223562Y0260016D01*
X0222046Y0258499D01*
X0221110Y0256239D01*
X0221110Y0253792D01*
X0222046Y0251532D01*
X0223562Y0250016D01*
X0222046Y0248499D01*
X0221110Y0246239D01*
X0221110Y0243792D01*
X0222046Y0241532D01*
X0223562Y0240016D01*
X0222046Y0238499D01*
X0221110Y0236239D01*
X0221110Y0233792D01*
X0222046Y0231532D01*
X0223562Y0230016D01*
X0222046Y0228499D01*
X0221110Y0226239D01*
X0221110Y0223792D01*
X0222046Y0221532D01*
X0223776Y0219802D01*
X0225108Y0219250D01*
X0224770Y0219078D01*
X0224165Y0218639D01*
X0223637Y0218110D01*
X0223197Y0217505D01*
X0222858Y0216839D01*
X0222627Y0216128D01*
X0222510Y0215390D01*
X0222510Y0215191D01*
X0227085Y0215191D01*
X0227085Y0214841D01*
X0222510Y0214841D01*
X0222510Y0214642D01*
X0222627Y0213903D01*
X0222858Y0213192D01*
X0223197Y0212526D01*
X0223637Y0211921D01*
X0224165Y0211393D01*
X0224770Y0210953D01*
X0225108Y0210781D01*
X0223776Y0210229D01*
X0222046Y0208499D01*
X0221110Y0206239D01*
X0221110Y0203792D01*
X0222046Y0201532D01*
X0223562Y0200016D01*
X0222046Y0198499D01*
X0221110Y0196239D01*
X0221110Y0193792D01*
X0222046Y0191532D01*
X0223562Y0190016D01*
X0222046Y0188499D01*
X0221110Y0186239D01*
X0221110Y0183792D01*
X0222046Y0181532D01*
X0223562Y0180016D01*
X0222046Y0178499D01*
X0221110Y0176239D01*
X0221110Y0173792D01*
X0222046Y0171532D01*
X0223562Y0170016D01*
X0222046Y0168499D01*
X0221110Y0166239D01*
X0221110Y0163792D01*
X0222046Y0161532D01*
X0223562Y0160016D01*
X0222046Y0158499D01*
X0221110Y0156239D01*
X0221110Y0153792D01*
X0222046Y0151532D01*
X0223562Y0150016D01*
X0222046Y0148499D01*
X0221110Y0146239D01*
X0221110Y0143792D01*
X0222046Y0141532D01*
X0223562Y0140016D01*
X0222046Y0138499D01*
X0221110Y0136239D01*
X0221110Y0133792D01*
X0222046Y0131532D01*
X0223562Y0130016D01*
X0222046Y0128499D01*
X0221110Y0126239D01*
X0221110Y0123792D01*
X0222046Y0121532D01*
X0223562Y0120016D01*
X0222046Y0118499D01*
X0221110Y0116239D01*
X0221110Y0113792D01*
X0222046Y0111532D01*
X0223776Y0109802D01*
X0226037Y0108866D01*
X0228483Y0108866D01*
X0230744Y0109802D01*
X0232474Y0111532D01*
X0233410Y0113792D01*
X0233410Y0116239D01*
X0232474Y0118499D01*
X0230957Y0120016D01*
X0232474Y0121532D01*
X0233410Y0123792D01*
X0233410Y0126239D01*
X0232474Y0128499D01*
X0230957Y0130016D01*
X0232474Y0131532D01*
X0233410Y0133792D01*
X0233410Y0136239D01*
X0232474Y0138499D01*
X0230957Y0140016D01*
X0232474Y0141532D01*
X0233410Y0143792D01*
X0233410Y0146239D01*
X0232474Y0148499D01*
X0230957Y0150016D01*
X0232474Y0151532D01*
X0233410Y0153792D01*
X0233410Y0156239D01*
X0232474Y0158499D01*
X0230957Y0160016D01*
X0232474Y0161532D01*
X0233410Y0163792D01*
X0233410Y0166239D01*
X0232474Y0168499D01*
X0230957Y0170016D01*
X0232474Y0171532D01*
X0233410Y0173792D01*
X0233410Y0176239D01*
X0232474Y0178499D01*
X0230957Y0180016D01*
X0232474Y0181532D01*
X0233410Y0183792D01*
X0233410Y0186239D01*
X0232474Y0188499D01*
X0230957Y0190016D01*
X0232474Y0191532D01*
X0233410Y0193792D01*
X0233410Y0196239D01*
X0232474Y0198499D01*
X0230957Y0200016D01*
X0232474Y0201532D01*
X0233410Y0203792D01*
X0233410Y0206239D01*
X0232474Y0208499D01*
X0230744Y0210229D01*
X0229412Y0210781D01*
X0229749Y0210953D01*
X0230354Y0211393D01*
X0230883Y0211921D01*
X0231322Y0212526D01*
X0231662Y0213192D01*
X0231893Y0213903D01*
X0232010Y0214642D01*
X0232010Y0214841D01*
X0227435Y0214841D01*
X0227435Y0215191D01*
X0232010Y0215191D01*
X0232010Y0215390D01*
X0231893Y0216128D01*
X0231662Y0216839D01*
X0231322Y0217505D01*
X0230883Y0218110D01*
X0230354Y0218639D01*
X0229749Y0219078D01*
X0229412Y0219250D01*
X0230744Y0219802D01*
X0232474Y0221532D01*
X0233410Y0223792D01*
X0233410Y0226239D01*
X0232474Y0228499D01*
X0230957Y0230016D01*
X0232474Y0231532D01*
X0233410Y0233792D01*
X0233410Y0236239D01*
X0232474Y0238499D01*
X0230957Y0240016D01*
X0232474Y0241532D01*
X0233410Y0243792D01*
X0233410Y0246239D01*
X0232474Y0248499D01*
X0230957Y0250016D01*
X0232474Y0251532D01*
X0233410Y0253792D01*
X0233410Y0256239D01*
X0232474Y0258499D01*
X0230957Y0260016D01*
X0232474Y0261532D01*
X0233410Y0263792D01*
X0233410Y0266239D01*
X0232474Y0268499D01*
X0230957Y0270016D01*
X0232474Y0271532D01*
X0233410Y0273792D01*
X0233410Y0276239D01*
X0232474Y0278499D01*
X0230957Y0280016D01*
X0232474Y0281532D01*
X0233410Y0283792D01*
X0233410Y0286239D01*
X0232474Y0288499D01*
X0230957Y0290016D01*
X0232474Y0291532D01*
X0233410Y0293792D01*
X0233410Y0294924D01*
X0235772Y0292562D01*
X0237009Y0291324D01*
X0238627Y0290654D01*
X0245090Y0290654D01*
X0245649Y0290094D01*
X0244161Y0288606D01*
X0243217Y0286328D01*
X0243217Y0283861D01*
X0244161Y0281582D01*
X0245649Y0280094D01*
X0244161Y0278606D01*
X0243217Y0276328D01*
X0243217Y0273861D01*
X0244161Y0271582D01*
X0245649Y0270094D01*
X0244161Y0268606D01*
X0243217Y0266328D01*
X0243217Y0263861D01*
X0244161Y0261582D01*
X0245649Y0260094D01*
X0244161Y0258606D01*
X0243217Y0256328D01*
X0243217Y0253861D01*
X0244161Y0251582D01*
X0245649Y0250094D01*
X0244161Y0248606D01*
X0243217Y0246328D01*
X0243217Y0243861D01*
X0244161Y0241582D01*
X0245649Y0240094D01*
X0244161Y0238606D01*
X0243217Y0236328D01*
X0243217Y0233861D01*
X0244161Y0231582D01*
X0245649Y0230094D01*
X0244161Y0228606D01*
X0243217Y0226328D01*
X0243217Y0223861D01*
X0244161Y0221582D01*
X0245905Y0219838D01*
X0247146Y0219324D01*
X0246902Y0219200D01*
X0246290Y0218756D01*
X0245756Y0218221D01*
X0245312Y0217610D01*
X0244969Y0216937D01*
X0244736Y0216218D01*
X0244617Y0215472D01*
X0244617Y0215294D01*
X0252217Y0215294D01*
X0252217Y0214894D01*
X0244617Y0214894D01*
X0244617Y0214717D01*
X0244736Y0213970D01*
X0244969Y0213252D01*
X0245312Y0212579D01*
X0245756Y0211967D01*
X0246290Y0211433D01*
X0246902Y0210989D01*
X0247146Y0210865D01*
X0245905Y0210351D01*
X0244161Y0208606D01*
X0243217Y0206328D01*
X0243217Y0203861D01*
X0244161Y0201582D01*
X0245649Y0200094D01*
X0244161Y0198606D01*
X0243217Y0196328D01*
X0243217Y0193861D01*
X0244161Y0191582D01*
X0245649Y0190094D01*
X0244161Y0188606D01*
X0243217Y0186328D01*
X0243217Y0183861D01*
X0244161Y0181582D01*
X0245649Y0180094D01*
X0244161Y0178606D01*
X0243217Y0176328D01*
X0243217Y0173861D01*
X0244161Y0171582D01*
X0245649Y0170094D01*
X0244161Y0168606D01*
X0243217Y0166328D01*
X0243217Y0163861D01*
X0244161Y0161582D01*
X0245649Y0160094D01*
X0244161Y0158606D01*
X0243217Y0156328D01*
X0243217Y0153861D01*
X0244161Y0151582D01*
X0245649Y0150094D01*
X0244161Y0148606D01*
X0243217Y0146328D01*
X0243217Y0143861D01*
X0244161Y0141582D01*
X0245649Y0140094D01*
X0244161Y0138606D01*
X0243217Y0136328D01*
X0243217Y0133861D01*
X0244161Y0131582D01*
X0245649Y0130094D01*
X0244161Y0128606D01*
X0243217Y0126328D01*
X0243217Y0123861D01*
X0244161Y0121582D01*
X0245649Y0120094D01*
X0244161Y0118606D01*
X0243217Y0116328D01*
X0243217Y0113861D01*
X0244161Y0111582D01*
X0245905Y0109838D01*
X0248184Y0108894D01*
X0256651Y0108894D01*
X0258929Y0109838D01*
X0260673Y0111582D01*
X0261617Y0113861D01*
X0261617Y0116328D01*
X0260673Y0118606D01*
X0259185Y0120094D01*
X0259785Y0120694D01*
X0270178Y0120694D01*
X0270558Y0120537D01*
X0277445Y0120537D01*
X0313586Y0084396D01*
X0315204Y0083726D01*
X0316954Y0083726D01*
X0318571Y0084396D01*
X0319896Y0085721D02*
X0389901Y0085721D01*
X0389901Y0087320D02*
X0321495Y0087320D01*
X0323093Y0088918D02*
X0389901Y0088918D01*
X0389901Y0090517D02*
X0324692Y0090517D01*
X0326290Y0092115D02*
X0389901Y0092115D01*
X0389901Y0093714D02*
X0327889Y0093714D01*
X0329487Y0095312D02*
X0389901Y0095312D01*
X0389901Y0096911D02*
X0331086Y0096911D01*
X0332684Y0098509D02*
X0389901Y0098509D01*
X0389901Y0100108D02*
X0334283Y0100108D01*
X0335881Y0101706D02*
X0389901Y0101706D01*
X0389901Y0103305D02*
X0337480Y0103305D01*
X0339079Y0104903D02*
X0389901Y0104903D01*
X0389901Y0106502D02*
X0340677Y0106502D01*
X0342276Y0108100D02*
X0389901Y0108100D01*
X0389901Y0109699D02*
X0343874Y0109699D01*
X0345473Y0111297D02*
X0353917Y0111297D01*
X0352121Y0112896D02*
X0347071Y0112896D01*
X0348670Y0114494D02*
X0351357Y0114494D01*
X0351065Y0116093D02*
X0350268Y0116093D01*
X0344217Y0122487D02*
X0336400Y0122487D01*
X0335733Y0120888D02*
X0342619Y0120888D01*
X0341020Y0119290D02*
X0337127Y0119290D01*
X0337789Y0117691D02*
X0339422Y0117691D01*
X0337403Y0124085D02*
X0344395Y0124085D01*
X0344395Y0125684D02*
X0337865Y0125684D01*
X0337865Y0127282D02*
X0344395Y0127282D01*
X0344395Y0128881D02*
X0337296Y0128881D01*
X0336142Y0130479D02*
X0344395Y0130479D01*
X0344395Y0132078D02*
X0335991Y0132078D01*
X0337233Y0133676D02*
X0344395Y0133676D01*
X0344395Y0135275D02*
X0337865Y0135275D01*
X0337865Y0136873D02*
X0344395Y0136873D01*
X0344395Y0138472D02*
X0337465Y0138472D01*
X0336551Y0140070D02*
X0344395Y0140070D01*
X0344395Y0141669D02*
X0334390Y0141669D01*
X0335200Y0143268D02*
X0344395Y0143268D01*
X0344395Y0144866D02*
X0336207Y0144866D01*
X0336465Y0146465D02*
X0344395Y0146465D01*
X0344395Y0148063D02*
X0336132Y0148063D01*
X0334980Y0149662D02*
X0344395Y0149662D01*
X0344395Y0151260D02*
X0313422Y0151260D01*
X0314059Y0151897D02*
X0315003Y0154176D01*
X0315003Y0156643D01*
X0314059Y0158921D01*
X0312315Y0160666D01*
X0310036Y0161609D01*
X0301570Y0161609D01*
X0299291Y0160666D01*
X0297547Y0158921D01*
X0296603Y0156643D01*
X0296603Y0154176D01*
X0297547Y0151897D01*
X0299035Y0150409D01*
X0297547Y0148921D01*
X0296603Y0146643D01*
X0296603Y0144176D01*
X0297547Y0141897D01*
X0299291Y0140153D01*
X0301570Y0139209D01*
X0310036Y0139209D01*
X0312315Y0140153D01*
X0314059Y0141897D01*
X0315003Y0144176D01*
X0315003Y0146643D01*
X0314059Y0148921D01*
X0312571Y0150409D01*
X0314059Y0151897D01*
X0314457Y0152859D02*
X0324190Y0152859D01*
X0323998Y0152998D02*
X0324558Y0152591D01*
X0325176Y0152277D01*
X0325834Y0152063D01*
X0326518Y0151954D01*
X0329464Y0151954D01*
X0329464Y0156354D01*
X0322465Y0156354D01*
X0322465Y0156008D01*
X0322573Y0155324D01*
X0322787Y0154665D01*
X0323101Y0154048D01*
X0323508Y0153488D01*
X0323998Y0152998D01*
X0322893Y0154457D02*
X0315003Y0154457D01*
X0315003Y0156056D02*
X0322465Y0156056D01*
X0322465Y0156354D02*
X0329464Y0156354D01*
X0329464Y0156354D01*
X0329465Y0156354D01*
X0329465Y0156354D01*
X0336465Y0156354D01*
X0336465Y0156008D01*
X0336356Y0155324D01*
X0336142Y0154665D01*
X0335828Y0154048D01*
X0335421Y0153488D01*
X0334931Y0152998D01*
X0334371Y0152591D01*
X0333754Y0152277D01*
X0333095Y0152063D01*
X0332411Y0151954D01*
X0329465Y0151954D01*
X0329465Y0156354D01*
X0336465Y0156354D01*
X0336465Y0156701D01*
X0336356Y0157385D01*
X0336142Y0158043D01*
X0335828Y0158660D01*
X0335421Y0159221D01*
X0334931Y0159710D01*
X0334371Y0160118D01*
X0333754Y0160432D01*
X0333288Y0160583D01*
X0335350Y0161437D01*
X0336982Y0163069D01*
X0337865Y0165201D01*
X0337865Y0167508D01*
X0336982Y0169640D01*
X0335350Y0171271D01*
X0335150Y0171354D01*
X0335350Y0171437D01*
X0336982Y0173069D01*
X0337865Y0175201D01*
X0337865Y0177508D01*
X0336982Y0179640D01*
X0335350Y0181271D01*
X0335150Y0181354D01*
X0335350Y0181437D01*
X0336982Y0183069D01*
X0337865Y0185201D01*
X0337865Y0187508D01*
X0336982Y0189640D01*
X0335350Y0191271D01*
X0333218Y0192154D01*
X0325711Y0192154D01*
X0323579Y0191271D01*
X0322959Y0190651D01*
X0272737Y0189849D01*
X0271896Y0189849D01*
X0271863Y0189835D01*
X0271826Y0189834D01*
X0271055Y0189500D01*
X0270279Y0189179D01*
X0270253Y0189153D01*
X0270220Y0189139D01*
X0269636Y0188535D01*
X0269042Y0187941D01*
X0269028Y0187908D01*
X0269002Y0187881D01*
X0268693Y0187100D01*
X0268372Y0186324D01*
X0268372Y0186288D01*
X0268358Y0186254D01*
X0268372Y0185414D01*
X0268372Y0160924D01*
X0267591Y0159038D01*
X0267591Y0156977D01*
X0268379Y0155073D01*
X0269837Y0153616D01*
X0271741Y0152827D01*
X0273802Y0152827D01*
X0275707Y0153616D01*
X0277164Y0155073D01*
X0277953Y0156977D01*
X0277953Y0159038D01*
X0277172Y0160924D01*
X0277172Y0181119D01*
X0323163Y0181853D01*
X0323579Y0181437D01*
X0323780Y0181354D01*
X0323579Y0181271D01*
X0321948Y0179640D01*
X0321065Y0177508D01*
X0321065Y0175201D01*
X0321948Y0173069D01*
X0323579Y0171437D01*
X0323780Y0171354D01*
X0323579Y0171271D01*
X0321948Y0169640D01*
X0321065Y0167508D01*
X0321065Y0165201D01*
X0321948Y0163069D01*
X0323579Y0161437D01*
X0325641Y0160583D01*
X0325176Y0160432D01*
X0324558Y0160118D01*
X0323998Y0159710D01*
X0323508Y0159221D01*
X0323101Y0158660D01*
X0322787Y0158043D01*
X0322573Y0157385D01*
X0322465Y0156701D01*
X0322465Y0156354D01*
X0322660Y0157654D02*
X0314584Y0157654D01*
X0313728Y0159253D02*
X0323540Y0159253D01*
X0324994Y0160851D02*
X0311867Y0160851D01*
X0321542Y0164048D02*
X0277172Y0164048D01*
X0277172Y0162450D02*
X0322567Y0162450D01*
X0321065Y0165647D02*
X0277172Y0165647D01*
X0277172Y0167245D02*
X0321065Y0167245D01*
X0321618Y0168844D02*
X0277172Y0168844D01*
X0277172Y0170442D02*
X0322750Y0170442D01*
X0322976Y0172041D02*
X0277172Y0172041D01*
X0277172Y0173639D02*
X0321711Y0173639D01*
X0321065Y0175238D02*
X0277172Y0175238D01*
X0277172Y0176836D02*
X0321065Y0176836D01*
X0321448Y0178435D02*
X0277172Y0178435D01*
X0277172Y0180033D02*
X0322341Y0180033D01*
X0323385Y0181632D02*
X0309305Y0181632D01*
X0323531Y0191223D02*
X0260314Y0191223D01*
X0259656Y0189624D02*
X0271342Y0189624D01*
X0269126Y0188026D02*
X0260914Y0188026D01*
X0261576Y0186427D02*
X0268414Y0186427D01*
X0268372Y0184829D02*
X0261617Y0184829D01*
X0261356Y0183230D02*
X0268372Y0183230D01*
X0268372Y0181632D02*
X0260694Y0181632D01*
X0259247Y0180033D02*
X0268372Y0180033D01*
X0268372Y0178435D02*
X0260745Y0178435D01*
X0261407Y0176836D02*
X0268372Y0176836D01*
X0268372Y0175238D02*
X0261617Y0175238D01*
X0261525Y0173639D02*
X0268372Y0173639D01*
X0268372Y0172041D02*
X0260863Y0172041D01*
X0259533Y0170442D02*
X0268372Y0170442D01*
X0268372Y0168844D02*
X0260436Y0168844D01*
X0261237Y0167245D02*
X0268372Y0167245D01*
X0268372Y0165647D02*
X0261617Y0165647D01*
X0261617Y0164048D02*
X0268372Y0164048D01*
X0268372Y0162450D02*
X0261033Y0162450D01*
X0259942Y0160851D02*
X0268341Y0160851D01*
X0267679Y0159253D02*
X0260027Y0159253D01*
X0261068Y0157654D02*
X0267591Y0157654D01*
X0267972Y0156056D02*
X0261617Y0156056D01*
X0261617Y0154457D02*
X0268995Y0154457D01*
X0271664Y0152859D02*
X0261202Y0152859D01*
X0260351Y0151260D02*
X0298184Y0151260D01*
X0298287Y0149662D02*
X0259618Y0149662D01*
X0260899Y0148063D02*
X0297191Y0148063D01*
X0296603Y0146465D02*
X0261561Y0146465D01*
X0261617Y0144866D02*
X0296603Y0144866D01*
X0296980Y0143268D02*
X0261371Y0143268D01*
X0260709Y0141669D02*
X0297775Y0141669D01*
X0299491Y0140070D02*
X0259209Y0140070D01*
X0260729Y0138472D02*
X0321464Y0138472D01*
X0321065Y0136873D02*
X0261391Y0136873D01*
X0261617Y0135275D02*
X0321065Y0135275D01*
X0321696Y0133676D02*
X0261541Y0133676D01*
X0260879Y0132078D02*
X0322939Y0132078D01*
X0322787Y0130479D02*
X0259570Y0130479D01*
X0259990Y0119290D02*
X0278692Y0119290D01*
X0280291Y0117691D02*
X0261052Y0117691D01*
X0261617Y0116093D02*
X0281889Y0116093D01*
X0283488Y0114494D02*
X0261617Y0114494D01*
X0261217Y0112896D02*
X0285086Y0112896D01*
X0286685Y0111297D02*
X0260388Y0111297D01*
X0258592Y0109699D02*
X0288283Y0109699D01*
X0289882Y0108100D02*
X0205240Y0108100D01*
X0203642Y0109699D02*
X0224025Y0109699D01*
X0222281Y0111297D02*
X0202043Y0111297D01*
X0200445Y0112896D02*
X0221481Y0112896D01*
X0221110Y0114494D02*
X0198846Y0114494D01*
X0197248Y0116093D02*
X0221110Y0116093D01*
X0221711Y0117691D02*
X0195649Y0117691D01*
X0194051Y0119290D02*
X0222837Y0119290D01*
X0222690Y0120888D02*
X0192452Y0120888D01*
X0190854Y0122487D02*
X0221651Y0122487D01*
X0221110Y0124085D02*
X0189255Y0124085D01*
X0187657Y0125684D02*
X0221110Y0125684D01*
X0221542Y0127282D02*
X0186058Y0127282D01*
X0184460Y0128881D02*
X0222428Y0128881D01*
X0223099Y0130479D02*
X0182861Y0130479D01*
X0182841Y0130500D02*
X0182841Y0145852D01*
X0182171Y0147469D01*
X0182132Y0147508D01*
X0180894Y0148746D01*
X0179277Y0149416D01*
X0171557Y0149416D01*
X0170957Y0150016D01*
X0172474Y0151532D01*
X0173410Y0153792D01*
X0173410Y0156239D01*
X0172474Y0158499D01*
X0170957Y0160016D01*
X0172474Y0161532D01*
X0173410Y0163792D01*
X0173410Y0166239D01*
X0172474Y0168499D01*
X0170957Y0170016D01*
X0172474Y0171532D01*
X0173410Y0173792D01*
X0173410Y0176239D01*
X0172474Y0178499D01*
X0170957Y0180016D01*
X0172474Y0181532D01*
X0173410Y0183792D01*
X0173410Y0186239D01*
X0172474Y0188499D01*
X0170744Y0190229D01*
X0169412Y0190781D01*
X0169749Y0190953D01*
X0170354Y0191393D01*
X0170883Y0191921D01*
X0171322Y0192526D01*
X0171662Y0193192D01*
X0171893Y0193903D01*
X0172010Y0194642D01*
X0172010Y0194841D01*
X0167435Y0194841D01*
X0167435Y0195191D01*
X0172010Y0195191D01*
X0172010Y0195390D01*
X0171893Y0196128D01*
X0171662Y0196839D01*
X0171322Y0197505D01*
X0170883Y0198110D01*
X0170354Y0198639D01*
X0169749Y0199078D01*
X0169412Y0199250D01*
X0170744Y0199802D01*
X0172474Y0201532D01*
X0173410Y0203792D01*
X0173410Y0206239D01*
X0172474Y0208499D01*
X0170957Y0210016D01*
X0172474Y0211532D01*
X0173410Y0213792D01*
X0173410Y0216239D01*
X0172474Y0218499D01*
X0170957Y0220016D01*
X0172474Y0221532D01*
X0173410Y0223792D01*
X0173410Y0226239D01*
X0172474Y0228499D01*
X0170957Y0230016D01*
X0172474Y0231532D01*
X0173410Y0233792D01*
X0173410Y0236239D01*
X0172474Y0238499D01*
X0170957Y0240016D01*
X0172474Y0241532D01*
X0173410Y0243792D01*
X0173410Y0246239D01*
X0172474Y0248499D01*
X0170957Y0250016D01*
X0172474Y0251532D01*
X0173410Y0253792D01*
X0173410Y0256239D01*
X0172474Y0258499D01*
X0170957Y0260016D01*
X0172474Y0261532D01*
X0173410Y0263792D01*
X0173410Y0266239D01*
X0172474Y0268499D01*
X0170957Y0270016D01*
X0172474Y0271532D01*
X0173410Y0273792D01*
X0173410Y0276239D01*
X0172474Y0278499D01*
X0170957Y0280016D01*
X0172474Y0281532D01*
X0173410Y0283792D01*
X0173410Y0286239D01*
X0172474Y0288499D01*
X0170957Y0290016D01*
X0172474Y0291532D01*
X0173410Y0293792D01*
X0173410Y0296239D01*
X0172474Y0298499D01*
X0171738Y0299235D01*
X0172022Y0299353D01*
X0172923Y0300253D01*
X0173410Y0301429D01*
X0173410Y0308602D01*
X0172923Y0309778D01*
X0172022Y0310679D01*
X0170846Y0311166D01*
X0163673Y0311166D01*
X0162497Y0310679D01*
X0161597Y0309778D01*
X0161110Y0308602D01*
X0161110Y0301429D01*
X0161597Y0300253D01*
X0162497Y0299353D01*
X0162782Y0299235D01*
X0162046Y0298499D01*
X0161110Y0296239D01*
X0161110Y0293792D01*
X0162046Y0291532D01*
X0163562Y0290016D01*
X0162046Y0288499D01*
X0161110Y0286239D01*
X0161110Y0283792D01*
X0162046Y0281532D01*
X0163562Y0280016D01*
X0162046Y0278499D01*
X0161110Y0276239D01*
X0161110Y0273792D01*
X0162046Y0271532D01*
X0163562Y0270016D01*
X0162046Y0268499D01*
X0161110Y0266239D01*
X0161110Y0263792D01*
X0162046Y0261532D01*
X0163562Y0260016D01*
X0162046Y0258499D01*
X0161110Y0256239D01*
X0161110Y0253792D01*
X0162046Y0251532D01*
X0163562Y0250016D01*
X0162046Y0248499D01*
X0161110Y0246239D01*
X0161110Y0243792D01*
X0162046Y0241532D01*
X0163562Y0240016D01*
X0162046Y0238499D01*
X0161110Y0236239D01*
X0161110Y0233792D01*
X0162046Y0231532D01*
X0163562Y0230016D01*
X0162046Y0228499D01*
X0161110Y0226239D01*
X0161110Y0223792D01*
X0162046Y0221532D01*
X0163562Y0220016D01*
X0162046Y0218499D01*
X0161110Y0216239D01*
X0161110Y0213792D01*
X0162046Y0211532D01*
X0163562Y0210016D01*
X0162046Y0208499D01*
X0161110Y0206239D01*
X0161110Y0203792D01*
X0162046Y0201532D01*
X0163776Y0199802D01*
X0165108Y0199250D01*
X0164770Y0199078D01*
X0164165Y0198639D01*
X0163637Y0198110D01*
X0163197Y0197505D01*
X0162858Y0196839D01*
X0162627Y0196128D01*
X0162510Y0195390D01*
X0162510Y0195191D01*
X0167085Y0195191D01*
X0167085Y0194841D01*
X0162510Y0194841D01*
X0162510Y0194642D01*
X0162627Y0193903D01*
X0162858Y0193192D01*
X0163197Y0192526D01*
X0163637Y0191921D01*
X0164165Y0191393D01*
X0164770Y0190953D01*
X0165108Y0190781D01*
X0163776Y0190229D01*
X0162046Y0188499D01*
X0161110Y0186239D01*
X0161110Y0183792D01*
X0162046Y0181532D01*
X0163562Y0180016D01*
X0162046Y0178499D01*
X0161110Y0176239D01*
X0161110Y0173792D01*
X0162046Y0171532D01*
X0163562Y0170016D01*
X0162046Y0168499D01*
X0161110Y0166239D01*
X0161110Y0163792D01*
X0162046Y0161532D01*
X0163562Y0160016D01*
X0162046Y0158499D01*
X0161110Y0156239D01*
X0161110Y0153792D01*
X0162046Y0151532D01*
X0163562Y0150016D01*
X0162046Y0148499D01*
X0161110Y0146239D01*
X0161110Y0143792D01*
X0162046Y0141532D01*
X0163562Y0140016D01*
X0162046Y0138499D01*
X0161110Y0136239D01*
X0161110Y0133792D01*
X0162046Y0131532D01*
X0163562Y0130016D01*
X0162046Y0128499D01*
X0161110Y0126239D01*
X0161110Y0123792D01*
X0162046Y0121532D01*
X0163562Y0120016D01*
X0162046Y0118499D01*
X0161110Y0116239D01*
X0161110Y0113792D01*
X0162046Y0111532D01*
X0163776Y0109802D01*
X0166037Y0108866D01*
X0168483Y0108866D01*
X0170744Y0109802D01*
X0172474Y0111532D01*
X0173410Y0113792D01*
X0173410Y0116239D01*
X0172474Y0118499D01*
X0170957Y0120016D01*
X0172474Y0121532D01*
X0173410Y0123792D01*
X0173410Y0126239D01*
X0172474Y0128499D01*
X0170957Y0130016D01*
X0172474Y0131532D01*
X0173410Y0133792D01*
X0173410Y0136239D01*
X0172474Y0138499D01*
X0170957Y0140016D01*
X0171557Y0140616D01*
X0174041Y0140616D01*
X0174041Y0127802D01*
X0174711Y0126185D01*
X0175949Y0124947D01*
X0210279Y0090616D01*
X0211896Y0089946D01*
X0268680Y0089946D01*
X0268970Y0089246D01*
X0270427Y0087789D01*
X0272332Y0087000D01*
X0274393Y0087000D01*
X0276297Y0087789D01*
X0277755Y0089246D01*
X0278543Y0091151D01*
X0278543Y0093212D01*
X0277755Y0095116D01*
X0276297Y0096573D01*
X0274411Y0097355D01*
X0273689Y0098077D01*
X0272072Y0098746D01*
X0214594Y0098746D01*
X0182841Y0130500D01*
X0182841Y0132078D02*
X0221820Y0132078D01*
X0221158Y0133676D02*
X0182841Y0133676D01*
X0182841Y0135275D02*
X0221110Y0135275D01*
X0221373Y0136873D02*
X0182841Y0136873D01*
X0182841Y0138472D02*
X0222035Y0138472D01*
X0223508Y0140070D02*
X0182841Y0140070D01*
X0182841Y0141669D02*
X0221989Y0141669D01*
X0221327Y0143268D02*
X0182841Y0143268D01*
X0182841Y0144866D02*
X0221110Y0144866D01*
X0221203Y0146465D02*
X0182587Y0146465D01*
X0181577Y0148063D02*
X0221865Y0148063D01*
X0223208Y0149662D02*
X0171311Y0149662D01*
X0172202Y0151260D02*
X0222318Y0151260D01*
X0221497Y0152859D02*
X0173023Y0152859D01*
X0173410Y0154457D02*
X0221110Y0154457D01*
X0221110Y0156056D02*
X0173410Y0156056D01*
X0172824Y0157654D02*
X0221696Y0157654D01*
X0222799Y0159253D02*
X0171720Y0159253D01*
X0171793Y0160851D02*
X0222727Y0160851D01*
X0221666Y0162450D02*
X0172854Y0162450D01*
X0173410Y0164048D02*
X0221110Y0164048D01*
X0221110Y0165647D02*
X0173410Y0165647D01*
X0172993Y0167245D02*
X0221527Y0167245D01*
X0222390Y0168844D02*
X0172129Y0168844D01*
X0171384Y0170442D02*
X0223136Y0170442D01*
X0221835Y0172041D02*
X0172684Y0172041D01*
X0173346Y0173639D02*
X0221173Y0173639D01*
X0221110Y0175238D02*
X0173410Y0175238D01*
X0173162Y0176836D02*
X0221357Y0176836D01*
X0222019Y0178435D02*
X0172500Y0178435D01*
X0170975Y0180033D02*
X0223545Y0180033D01*
X0222005Y0181632D02*
X0172515Y0181632D01*
X0173177Y0183230D02*
X0221343Y0183230D01*
X0221110Y0184829D02*
X0173410Y0184829D01*
X0173332Y0186427D02*
X0221188Y0186427D01*
X0221850Y0188026D02*
X0172670Y0188026D01*
X0171349Y0189624D02*
X0223171Y0189624D01*
X0222355Y0191223D02*
X0170121Y0191223D01*
X0171473Y0192821D02*
X0221512Y0192821D01*
X0221110Y0194420D02*
X0171975Y0194420D01*
X0171910Y0196018D02*
X0221110Y0196018D01*
X0221681Y0197617D02*
X0171241Y0197617D01*
X0169480Y0199215D02*
X0222762Y0199215D01*
X0222764Y0200814D02*
X0171755Y0200814D01*
X0172838Y0202412D02*
X0221681Y0202412D01*
X0221110Y0204011D02*
X0173410Y0204011D01*
X0173410Y0205609D02*
X0221110Y0205609D01*
X0221511Y0207208D02*
X0173009Y0207208D01*
X0172167Y0208806D02*
X0222353Y0208806D01*
X0224200Y0210405D02*
X0171346Y0210405D01*
X0172669Y0212003D02*
X0223577Y0212003D01*
X0222725Y0213602D02*
X0173331Y0213602D01*
X0173410Y0215201D02*
X0222510Y0215201D01*
X0222845Y0216799D02*
X0173178Y0216799D01*
X0172516Y0218398D02*
X0223924Y0218398D01*
X0223582Y0219996D02*
X0170977Y0219996D01*
X0172499Y0221595D02*
X0222020Y0221595D01*
X0221358Y0223193D02*
X0173162Y0223193D01*
X0173410Y0224792D02*
X0221110Y0224792D01*
X0221172Y0226390D02*
X0173347Y0226390D01*
X0172685Y0227989D02*
X0221835Y0227989D01*
X0223134Y0229587D02*
X0171386Y0229587D01*
X0172127Y0231186D02*
X0222393Y0231186D01*
X0221527Y0232784D02*
X0172992Y0232784D01*
X0173410Y0234383D02*
X0221110Y0234383D01*
X0221110Y0235981D02*
X0173410Y0235981D01*
X0172855Y0237580D02*
X0221665Y0237580D01*
X0222725Y0239178D02*
X0171795Y0239178D01*
X0171718Y0240777D02*
X0222801Y0240777D01*
X0221697Y0242375D02*
X0172823Y0242375D01*
X0173410Y0243974D02*
X0221110Y0243974D01*
X0221110Y0245572D02*
X0173410Y0245572D01*
X0173024Y0247171D02*
X0221496Y0247171D01*
X0222316Y0248769D02*
X0172204Y0248769D01*
X0171309Y0250368D02*
X0223210Y0250368D01*
X0221866Y0251966D02*
X0172653Y0251966D01*
X0173316Y0253565D02*
X0221204Y0253565D01*
X0221110Y0255163D02*
X0173410Y0255163D01*
X0173193Y0256762D02*
X0221326Y0256762D01*
X0221989Y0258360D02*
X0172531Y0258360D01*
X0171014Y0259959D02*
X0223506Y0259959D01*
X0222036Y0261557D02*
X0172484Y0261557D01*
X0173146Y0263156D02*
X0221374Y0263156D01*
X0221110Y0264754D02*
X0173410Y0264754D01*
X0173363Y0266353D02*
X0221157Y0266353D01*
X0221819Y0267951D02*
X0172701Y0267951D01*
X0171423Y0269550D02*
X0223097Y0269550D01*
X0222430Y0271148D02*
X0172090Y0271148D01*
X0172977Y0272747D02*
X0221543Y0272747D01*
X0221110Y0274345D02*
X0173410Y0274345D01*
X0173410Y0275944D02*
X0221110Y0275944D01*
X0221650Y0277542D02*
X0172870Y0277542D01*
X0171832Y0279141D02*
X0222688Y0279141D01*
X0222839Y0280739D02*
X0171681Y0280739D01*
X0172807Y0282338D02*
X0221712Y0282338D01*
X0221110Y0283937D02*
X0173410Y0283937D01*
X0173410Y0285535D02*
X0221110Y0285535D01*
X0221480Y0287134D02*
X0173039Y0287134D01*
X0172241Y0288732D02*
X0222279Y0288732D01*
X0223248Y0290331D02*
X0171272Y0290331D01*
X0172638Y0291929D02*
X0221882Y0291929D01*
X0221220Y0293528D02*
X0173300Y0293528D01*
X0173410Y0295126D02*
X0221110Y0295126D01*
X0221311Y0296725D02*
X0173209Y0296725D01*
X0172547Y0298323D02*
X0221973Y0298323D01*
X0223468Y0299922D02*
X0172591Y0299922D01*
X0173410Y0301520D02*
X0222058Y0301520D01*
X0221389Y0303119D02*
X0173410Y0303119D01*
X0173410Y0304717D02*
X0221110Y0304717D01*
X0221142Y0306316D02*
X0173410Y0306316D01*
X0173410Y0307914D02*
X0221804Y0307914D01*
X0223059Y0309513D02*
X0173033Y0309513D01*
X0170978Y0311111D02*
X0225905Y0311111D01*
X0228615Y0311111D02*
X0232269Y0311111D01*
X0232269Y0309513D02*
X0231460Y0309513D01*
X0232269Y0312710D02*
X0005800Y0312710D01*
X0005800Y0314308D02*
X0232269Y0314308D01*
X0232269Y0315907D02*
X0005800Y0315907D01*
X0005800Y0317505D02*
X0232269Y0317505D01*
X0232269Y0319104D02*
X0005800Y0319104D01*
X0005800Y0320702D02*
X0232387Y0320702D01*
X0233204Y0322301D02*
X0005800Y0322301D01*
X0005800Y0323899D02*
X0234803Y0323899D01*
X0234177Y0323273D02*
X0234177Y0323273D01*
X0236401Y0325498D02*
X0005800Y0325498D01*
X0005800Y0327096D02*
X0238000Y0327096D01*
X0239598Y0328695D02*
X0005800Y0328695D01*
X0005800Y0330293D02*
X0241197Y0330293D01*
X0242795Y0331892D02*
X0005800Y0331892D01*
X0005800Y0333490D02*
X0244394Y0333490D01*
X0245992Y0335089D02*
X0005800Y0335089D01*
X0005800Y0336687D02*
X0247591Y0336687D01*
X0249189Y0338286D02*
X0005800Y0338286D01*
X0005800Y0339884D02*
X0250788Y0339884D01*
X0252386Y0341483D02*
X0005800Y0341483D01*
X0005800Y0343081D02*
X0253985Y0343081D01*
X0255583Y0344680D02*
X0005800Y0344680D01*
X0005800Y0346278D02*
X0257182Y0346278D01*
X0258780Y0347877D02*
X0005800Y0347877D01*
X0005800Y0349475D02*
X0260379Y0349475D01*
X0261977Y0351074D02*
X0005800Y0351074D01*
X0005800Y0352672D02*
X0263576Y0352672D01*
X0265174Y0354271D02*
X0005800Y0354271D01*
X0005800Y0355870D02*
X0266773Y0355870D01*
X0268371Y0357468D02*
X0005800Y0357468D01*
X0005800Y0359067D02*
X0269970Y0359067D01*
X0271569Y0360665D02*
X0093081Y0360665D01*
X0092618Y0360202D02*
X0096798Y0364382D01*
X0096798Y0370295D01*
X0092618Y0374476D01*
X0086705Y0374476D01*
X0082524Y0370295D01*
X0082524Y0364382D01*
X0086705Y0360202D01*
X0092618Y0360202D01*
X0094680Y0362264D02*
X0273167Y0362264D01*
X0274766Y0363862D02*
X0096278Y0363862D01*
X0096798Y0365461D02*
X0276364Y0365461D01*
X0280817Y0357468D02*
X0296123Y0357468D01*
X0300444Y0357468D02*
X0307724Y0357468D01*
X0307933Y0357260D02*
X0306445Y0355772D01*
X0305501Y0353493D01*
X0305501Y0351027D01*
X0306445Y0348748D01*
X0308189Y0347004D01*
X0309430Y0346490D01*
X0309185Y0346365D01*
X0308574Y0345921D01*
X0308040Y0345387D01*
X0307595Y0344776D01*
X0307252Y0344102D01*
X0307019Y0343384D01*
X0306901Y0342638D01*
X0306901Y0342460D01*
X0314501Y0342460D01*
X0314501Y0342060D01*
X0306901Y0342060D01*
X0306901Y0341882D01*
X0307019Y0341136D01*
X0307252Y0340417D01*
X0307595Y0339744D01*
X0308040Y0339133D01*
X0308574Y0338599D01*
X0309185Y0338155D01*
X0309430Y0338030D01*
X0308189Y0337516D01*
X0306445Y0335772D01*
X0305501Y0333493D01*
X0305501Y0331027D01*
X0306445Y0328748D01*
X0307933Y0327260D01*
X0306445Y0325772D01*
X0305501Y0323493D01*
X0305501Y0321027D01*
X0306445Y0318748D01*
X0308189Y0317004D01*
X0310468Y0316060D01*
X0318934Y0316060D01*
X0321213Y0317004D01*
X0322957Y0318748D01*
X0323901Y0321027D01*
X0323901Y0323493D01*
X0322957Y0325772D01*
X0321469Y0327260D01*
X0322957Y0328748D01*
X0323901Y0331027D01*
X0323901Y0333493D01*
X0322957Y0335772D01*
X0321213Y0337516D01*
X0319972Y0338030D01*
X0320217Y0338155D01*
X0320828Y0338599D01*
X0321362Y0339133D01*
X0321806Y0339744D01*
X0322149Y0340417D01*
X0322383Y0341136D01*
X0322501Y0341882D01*
X0322501Y0342060D01*
X0314901Y0342060D01*
X0314901Y0342460D01*
X0322501Y0342460D01*
X0322501Y0342638D01*
X0322383Y0343384D01*
X0322149Y0344102D01*
X0321806Y0344776D01*
X0321362Y0345387D01*
X0320828Y0345921D01*
X0320217Y0346365D01*
X0319972Y0346490D01*
X0321213Y0347004D01*
X0322957Y0348748D01*
X0323901Y0351027D01*
X0323901Y0353493D01*
X0322957Y0355772D01*
X0321469Y0357260D01*
X0322957Y0358748D01*
X0323901Y0361027D01*
X0323901Y0363493D01*
X0322957Y0365772D01*
X0321469Y0367260D01*
X0322957Y0368748D01*
X0323901Y0371027D01*
X0323901Y0373493D01*
X0322957Y0375772D01*
X0321213Y0377516D01*
X0318934Y0378460D01*
X0310468Y0378460D01*
X0308189Y0377516D01*
X0306445Y0375772D01*
X0305501Y0373493D01*
X0305501Y0371027D01*
X0306445Y0368748D01*
X0307933Y0367260D01*
X0306445Y0365772D01*
X0305501Y0363493D01*
X0305501Y0361027D01*
X0306445Y0358748D01*
X0307933Y0357260D01*
X0306542Y0355870D02*
X0279218Y0355870D01*
X0277620Y0354271D02*
X0305823Y0354271D01*
X0305501Y0352672D02*
X0276021Y0352672D01*
X0274422Y0351074D02*
X0305501Y0351074D01*
X0306143Y0349475D02*
X0272824Y0349475D01*
X0271225Y0347877D02*
X0307316Y0347877D01*
X0309066Y0346278D02*
X0269627Y0346278D01*
X0268028Y0344680D02*
X0307547Y0344680D01*
X0306971Y0343081D02*
X0266430Y0343081D01*
X0264831Y0341483D02*
X0306964Y0341483D01*
X0307524Y0339884D02*
X0263233Y0339884D01*
X0261634Y0338286D02*
X0309004Y0338286D01*
X0307360Y0336687D02*
X0260036Y0336687D01*
X0258437Y0335089D02*
X0275321Y0335089D01*
X0274213Y0333490D02*
X0256839Y0333490D01*
X0255240Y0331892D02*
X0272992Y0331892D01*
X0271394Y0330293D02*
X0253642Y0330293D01*
X0252043Y0328695D02*
X0269795Y0328695D01*
X0268197Y0327096D02*
X0250445Y0327096D01*
X0248846Y0325498D02*
X0266598Y0325498D01*
X0265000Y0323899D02*
X0247248Y0323899D01*
X0245649Y0322301D02*
X0263401Y0322301D01*
X0261803Y0320702D02*
X0244051Y0320702D01*
X0242452Y0319104D02*
X0260204Y0319104D01*
X0258606Y0317505D02*
X0241069Y0317505D01*
X0241069Y0315907D02*
X0257007Y0315907D01*
X0255409Y0314308D02*
X0241069Y0314308D01*
X0241069Y0312710D02*
X0253810Y0312710D01*
X0247742Y0311111D02*
X0241069Y0311111D01*
X0241069Y0309513D02*
X0245067Y0309513D01*
X0243874Y0307914D02*
X0241069Y0307914D01*
X0241069Y0306316D02*
X0243217Y0306316D01*
X0243217Y0304717D02*
X0241069Y0304717D01*
X0241069Y0303119D02*
X0243525Y0303119D01*
X0244224Y0301520D02*
X0241069Y0301520D01*
X0241069Y0299922D02*
X0245476Y0299922D01*
X0245413Y0290331D02*
X0231272Y0290331D01*
X0232241Y0288732D02*
X0244287Y0288732D01*
X0243551Y0287134D02*
X0233039Y0287134D01*
X0233410Y0285535D02*
X0243217Y0285535D01*
X0243217Y0283937D02*
X0233410Y0283937D01*
X0232807Y0282338D02*
X0243848Y0282338D01*
X0245004Y0280739D02*
X0231681Y0280739D01*
X0231832Y0279141D02*
X0244696Y0279141D01*
X0243720Y0277542D02*
X0232870Y0277542D01*
X0233410Y0275944D02*
X0243217Y0275944D01*
X0243217Y0274345D02*
X0233410Y0274345D01*
X0232977Y0272747D02*
X0243679Y0272747D01*
X0244595Y0271148D02*
X0232090Y0271148D01*
X0231423Y0269550D02*
X0245105Y0269550D01*
X0243890Y0267951D02*
X0232701Y0267951D01*
X0233363Y0266353D02*
X0243228Y0266353D01*
X0243217Y0264754D02*
X0233410Y0264754D01*
X0233146Y0263156D02*
X0243509Y0263156D01*
X0244186Y0261557D02*
X0232484Y0261557D01*
X0231014Y0259959D02*
X0245514Y0259959D01*
X0244059Y0258360D02*
X0232531Y0258360D01*
X0233193Y0256762D02*
X0243397Y0256762D01*
X0243217Y0255163D02*
X0233410Y0255163D01*
X0233316Y0253565D02*
X0243340Y0253565D01*
X0244002Y0251966D02*
X0232653Y0251966D01*
X0231309Y0250368D02*
X0245376Y0250368D01*
X0244324Y0248769D02*
X0232204Y0248769D01*
X0233024Y0247171D02*
X0243567Y0247171D01*
X0243217Y0245572D02*
X0233410Y0245572D01*
X0233410Y0243974D02*
X0243217Y0243974D01*
X0243833Y0242375D02*
X0232823Y0242375D01*
X0231718Y0240777D02*
X0244967Y0240777D01*
X0244733Y0239178D02*
X0231795Y0239178D01*
X0232855Y0237580D02*
X0243736Y0237580D01*
X0243217Y0235981D02*
X0233410Y0235981D01*
X0233410Y0234383D02*
X0243217Y0234383D01*
X0243663Y0232784D02*
X0232992Y0232784D01*
X0232127Y0231186D02*
X0244558Y0231186D01*
X0245142Y0229587D02*
X0231386Y0229587D01*
X0232685Y0227989D02*
X0243905Y0227989D01*
X0243243Y0226390D02*
X0233347Y0226390D01*
X0233410Y0224792D02*
X0243217Y0224792D01*
X0243494Y0223193D02*
X0233162Y0223193D01*
X0232499Y0221595D02*
X0244156Y0221595D01*
X0245748Y0219996D02*
X0230938Y0219996D01*
X0230596Y0218398D02*
X0245932Y0218398D01*
X0244924Y0216799D02*
X0231675Y0216799D01*
X0232010Y0215201D02*
X0252217Y0215201D01*
X0252617Y0215201D02*
X0389901Y0215201D01*
X0389901Y0216799D02*
X0259910Y0216799D01*
X0258902Y0218398D02*
X0389901Y0218398D01*
X0389901Y0219996D02*
X0259087Y0219996D01*
X0260678Y0221595D02*
X0389901Y0221595D01*
X0389901Y0223193D02*
X0261341Y0223193D01*
X0261617Y0224792D02*
X0389901Y0224792D01*
X0389901Y0226390D02*
X0261591Y0226390D01*
X0260929Y0227989D02*
X0389901Y0227989D01*
X0389901Y0229587D02*
X0259693Y0229587D01*
X0260277Y0231186D02*
X0389901Y0231186D01*
X0389901Y0232784D02*
X0261171Y0232784D01*
X0261617Y0234383D02*
X0389901Y0234383D01*
X0389901Y0235981D02*
X0261617Y0235981D01*
X0261099Y0237580D02*
X0389901Y0237580D01*
X0389901Y0239178D02*
X0260102Y0239178D01*
X0259868Y0240777D02*
X0389901Y0240777D01*
X0389901Y0242375D02*
X0261002Y0242375D01*
X0261617Y0243974D02*
X0389901Y0243974D01*
X0389901Y0245572D02*
X0261617Y0245572D01*
X0261268Y0247171D02*
X0325958Y0247171D01*
X0326048Y0247080D02*
X0328635Y0246009D01*
X0339113Y0246009D01*
X0341700Y0247080D01*
X0343680Y0249060D01*
X0344751Y0251647D01*
X0344751Y0254447D01*
X0343680Y0257034D01*
X0341700Y0259014D01*
X0339113Y0260086D01*
X0328635Y0260086D01*
X0326048Y0259014D01*
X0324068Y0257034D01*
X0322997Y0254447D01*
X0322997Y0251647D01*
X0324068Y0249060D01*
X0326048Y0247080D01*
X0324359Y0248769D02*
X0315082Y0248769D01*
X0313639Y0247326D02*
X0317036Y0250724D01*
X0317036Y0255528D01*
X0313639Y0258926D01*
X0308834Y0258926D01*
X0305436Y0255528D01*
X0305436Y0250724D01*
X0308834Y0247326D01*
X0313639Y0247326D01*
X0316680Y0250368D02*
X0323527Y0250368D01*
X0322997Y0251966D02*
X0317036Y0251966D01*
X0317036Y0253565D02*
X0322997Y0253565D01*
X0323293Y0255163D02*
X0317036Y0255163D01*
X0315803Y0256762D02*
X0323956Y0256762D01*
X0325394Y0258360D02*
X0314204Y0258360D01*
X0308268Y0258360D02*
X0284204Y0258360D01*
X0283639Y0258926D02*
X0278834Y0258926D01*
X0275436Y0255528D01*
X0275436Y0250724D01*
X0278834Y0247326D01*
X0283639Y0247326D01*
X0287036Y0250724D01*
X0287036Y0255528D01*
X0283639Y0258926D01*
X0285803Y0256762D02*
X0306670Y0256762D01*
X0305436Y0255163D02*
X0287036Y0255163D01*
X0287036Y0253565D02*
X0305436Y0253565D01*
X0305436Y0251966D02*
X0287036Y0251966D01*
X0286680Y0250368D02*
X0305792Y0250368D01*
X0307391Y0248769D02*
X0285082Y0248769D01*
X0277391Y0248769D02*
X0260511Y0248769D01*
X0259459Y0250368D02*
X0275792Y0250368D01*
X0275436Y0251966D02*
X0260832Y0251966D01*
X0261495Y0253565D02*
X0275436Y0253565D01*
X0275436Y0255163D02*
X0261617Y0255163D01*
X0261438Y0256762D02*
X0276670Y0256762D01*
X0278268Y0258360D02*
X0260775Y0258360D01*
X0259321Y0259959D02*
X0328329Y0259959D01*
X0317194Y0268913D02*
X0313796Y0265515D01*
X0308991Y0265515D01*
X0305594Y0268913D01*
X0305594Y0273717D01*
X0308991Y0277115D01*
X0313796Y0277115D01*
X0317194Y0273717D01*
X0317194Y0268913D01*
X0317194Y0269550D02*
X0389901Y0269550D01*
X0389901Y0271148D02*
X0317194Y0271148D01*
X0317194Y0272747D02*
X0389901Y0272747D01*
X0389901Y0274345D02*
X0316566Y0274345D01*
X0314967Y0275944D02*
X0389901Y0275944D01*
X0389901Y0277542D02*
X0261114Y0277542D01*
X0261617Y0275944D02*
X0307820Y0275944D01*
X0306222Y0274345D02*
X0261617Y0274345D01*
X0261156Y0272747D02*
X0305594Y0272747D01*
X0305594Y0271148D02*
X0260239Y0271148D01*
X0259730Y0269550D02*
X0305594Y0269550D01*
X0306555Y0267951D02*
X0260945Y0267951D01*
X0261607Y0266353D02*
X0308153Y0266353D01*
X0314634Y0266353D02*
X0389901Y0266353D01*
X0389901Y0267951D02*
X0316233Y0267951D01*
X0339419Y0259959D02*
X0389901Y0259959D01*
X0389901Y0261557D02*
X0260648Y0261557D01*
X0261325Y0263156D02*
X0389901Y0263156D01*
X0389901Y0264754D02*
X0261617Y0264754D01*
X0260139Y0279141D02*
X0389901Y0279141D01*
X0389901Y0280739D02*
X0259830Y0280739D01*
X0260986Y0282338D02*
X0389901Y0282338D01*
X0389901Y0283937D02*
X0261617Y0283937D01*
X0261617Y0285535D02*
X0389901Y0285535D01*
X0389901Y0287134D02*
X0261284Y0287134D01*
X0260548Y0288732D02*
X0389901Y0288732D01*
X0389901Y0290331D02*
X0259421Y0290331D01*
X0260817Y0291929D02*
X0389901Y0291929D01*
X0389901Y0293528D02*
X0261479Y0293528D01*
X0261617Y0295126D02*
X0389901Y0295126D01*
X0389901Y0296725D02*
X0315006Y0296725D01*
X0313796Y0295515D02*
X0317194Y0298913D01*
X0317194Y0303717D01*
X0313796Y0307115D01*
X0308991Y0307115D01*
X0305594Y0303717D01*
X0305594Y0298913D01*
X0308991Y0295515D01*
X0313796Y0295515D01*
X0316604Y0298323D02*
X0389901Y0298323D01*
X0389901Y0299922D02*
X0317194Y0299922D01*
X0317194Y0301520D02*
X0389901Y0301520D01*
X0389901Y0303119D02*
X0317194Y0303119D01*
X0316194Y0304717D02*
X0389901Y0304717D01*
X0389901Y0306316D02*
X0314595Y0306316D01*
X0308192Y0306316D02*
X0261617Y0306316D01*
X0261617Y0304717D02*
X0306593Y0304717D01*
X0305594Y0303119D02*
X0261310Y0303119D01*
X0260611Y0301520D02*
X0305594Y0301520D01*
X0305594Y0299922D02*
X0259358Y0299922D01*
X0260791Y0298323D02*
X0306183Y0298323D01*
X0307782Y0296725D02*
X0261453Y0296725D01*
X0261460Y0307914D02*
X0389901Y0307914D01*
X0389901Y0309513D02*
X0263058Y0309513D01*
X0264657Y0311111D02*
X0389901Y0311111D01*
X0389901Y0312710D02*
X0266255Y0312710D01*
X0267854Y0314308D02*
X0389901Y0314308D01*
X0389901Y0315907D02*
X0269452Y0315907D01*
X0271051Y0317505D02*
X0307687Y0317505D01*
X0306297Y0319104D02*
X0272649Y0319104D01*
X0274248Y0320702D02*
X0305635Y0320702D01*
X0305501Y0322301D02*
X0275846Y0322301D01*
X0277445Y0323899D02*
X0305669Y0323899D01*
X0306331Y0325498D02*
X0279043Y0325498D01*
X0281983Y0327096D02*
X0307769Y0327096D01*
X0306498Y0328695D02*
X0283443Y0328695D01*
X0284105Y0330293D02*
X0305805Y0330293D01*
X0305501Y0331892D02*
X0284134Y0331892D01*
X0283692Y0333490D02*
X0305501Y0333490D01*
X0306162Y0335089D02*
X0282585Y0335089D01*
X0302496Y0359067D02*
X0306313Y0359067D01*
X0305651Y0360665D02*
X0303263Y0360665D01*
X0303465Y0362264D02*
X0305501Y0362264D01*
X0305654Y0363862D02*
X0303195Y0363862D01*
X0302331Y0365461D02*
X0306316Y0365461D01*
X0307732Y0367059D02*
X0300046Y0367059D01*
X0296521Y0367059D02*
X0096798Y0367059D01*
X0096798Y0368658D02*
X0306535Y0368658D01*
X0305820Y0370256D02*
X0096798Y0370256D01*
X0095239Y0371855D02*
X0305501Y0371855D01*
X0305501Y0373453D02*
X0093640Y0373453D01*
X0085683Y0373453D02*
X0032564Y0373453D01*
X0032310Y0372507D02*
X0033448Y0376754D01*
X0033448Y0381151D01*
X0032310Y0385399D01*
X0030111Y0389207D01*
X0029417Y0389901D01*
X0366283Y0389901D01*
X0365589Y0389207D01*
X0363391Y0385399D01*
X0362253Y0381151D01*
X0362253Y0376754D01*
X0363391Y0372507D01*
X0365589Y0368699D01*
X0368699Y0365589D01*
X0372507Y0363391D01*
X0376754Y0362253D01*
X0381151Y0362253D01*
X0385399Y0363391D01*
X0389207Y0365589D01*
X0389901Y0366283D01*
X0389901Y0161269D01*
X0388929Y0162240D01*
X0386651Y0163184D01*
X0378184Y0163184D01*
X0375905Y0162240D01*
X0374161Y0160496D01*
X0373217Y0158218D01*
X0373217Y0155751D01*
X0374161Y0153472D01*
X0375649Y0151984D01*
X0374161Y0150496D01*
X0373217Y0148218D01*
X0373217Y0145751D01*
X0374161Y0143472D01*
X0375905Y0141728D01*
X0378184Y0140784D01*
X0386651Y0140784D01*
X0388929Y0141728D01*
X0389901Y0142700D01*
X0389901Y0029417D01*
X0389207Y0030111D01*
X0385399Y0032310D01*
X0381151Y0033448D01*
X0376754Y0033448D01*
X0372507Y0032310D01*
X0368699Y0030111D01*
X0365589Y0027002D01*
X0363391Y0023194D01*
X0362253Y0018947D01*
X0362253Y0014549D01*
X0363391Y0010302D01*
X0365589Y0006494D01*
X0366283Y0005800D01*
X0029417Y0005800D01*
X0030111Y0006494D01*
X0032310Y0010302D01*
X0033448Y0014549D01*
X0033448Y0018947D01*
X0032310Y0023194D01*
X0030111Y0027002D01*
X0027002Y0030111D01*
X0023194Y0032310D01*
X0018947Y0033448D01*
X0014549Y0033448D01*
X0010302Y0032310D01*
X0006494Y0030111D01*
X0005800Y0029417D01*
X0005800Y0366283D01*
X0006494Y0365589D01*
X0010302Y0363391D01*
X0014549Y0362253D01*
X0018947Y0362253D01*
X0023194Y0363391D01*
X0027002Y0365589D01*
X0030111Y0368699D01*
X0032310Y0372507D01*
X0031933Y0371855D02*
X0066379Y0371855D01*
X0067600Y0373076D02*
X0064239Y0369715D01*
X0064239Y0367523D01*
X0069792Y0367523D01*
X0069792Y0373076D01*
X0067600Y0373076D01*
X0069792Y0371855D02*
X0070161Y0371855D01*
X0070161Y0373076D02*
X0070161Y0367523D01*
X0075713Y0367523D01*
X0075713Y0369715D01*
X0072353Y0373076D01*
X0070161Y0373076D01*
X0070161Y0370256D02*
X0069792Y0370256D01*
X0069792Y0368658D02*
X0070161Y0368658D01*
X0070161Y0367523D02*
X0069792Y0367523D01*
X0069792Y0367154D01*
X0070161Y0367154D01*
X0070161Y0367523D01*
X0070161Y0367154D02*
X0075713Y0367154D01*
X0075713Y0364962D01*
X0072353Y0361602D01*
X0070161Y0361602D01*
X0070161Y0367154D01*
X0070161Y0367059D02*
X0069792Y0367059D01*
X0069792Y0367154D02*
X0069792Y0361602D01*
X0067600Y0361602D01*
X0064239Y0364962D01*
X0064239Y0367154D01*
X0069792Y0367154D01*
X0069792Y0365461D02*
X0070161Y0365461D01*
X0070161Y0363862D02*
X0069792Y0363862D01*
X0069792Y0362264D02*
X0070161Y0362264D01*
X0073015Y0362264D02*
X0084643Y0362264D01*
X0083045Y0363862D02*
X0074613Y0363862D01*
X0075713Y0365461D02*
X0082524Y0365461D01*
X0082524Y0367059D02*
X0075713Y0367059D01*
X0075713Y0368658D02*
X0082524Y0368658D01*
X0082524Y0370256D02*
X0075172Y0370256D01*
X0073574Y0371855D02*
X0084084Y0371855D01*
X0086242Y0360665D02*
X0005800Y0360665D01*
X0005800Y0362264D02*
X0014509Y0362264D01*
X0018987Y0362264D02*
X0066938Y0362264D01*
X0065340Y0363862D02*
X0024010Y0363862D01*
X0026779Y0365461D02*
X0064239Y0365461D01*
X0064239Y0367059D02*
X0028472Y0367059D01*
X0030070Y0368658D02*
X0064239Y0368658D01*
X0064781Y0370256D02*
X0031011Y0370256D01*
X0032992Y0375052D02*
X0306146Y0375052D01*
X0307323Y0376650D02*
X0033420Y0376650D01*
X0033448Y0378249D02*
X0309958Y0378249D01*
X0319444Y0378249D02*
X0362253Y0378249D01*
X0362253Y0379847D02*
X0033448Y0379847D01*
X0033369Y0381446D02*
X0362332Y0381446D01*
X0362760Y0383044D02*
X0032941Y0383044D01*
X0032513Y0384643D02*
X0363188Y0384643D01*
X0363877Y0386241D02*
X0031824Y0386241D01*
X0030901Y0387840D02*
X0364800Y0387840D01*
X0365821Y0389438D02*
X0029880Y0389438D01*
X0006717Y0365461D02*
X0005800Y0365461D01*
X0005800Y0363862D02*
X0009486Y0363862D01*
X0005800Y0311111D02*
X0054838Y0311111D01*
X0054857Y0311131D02*
X0051460Y0307733D01*
X0051460Y0307353D01*
X0049082Y0309731D01*
X0047260Y0309731D01*
X0047260Y0305331D01*
X0047260Y0305331D01*
X0047260Y0309731D01*
X0045437Y0309731D01*
X0042860Y0307153D01*
X0042860Y0305331D01*
X0047260Y0305331D01*
X0047260Y0305331D01*
X0047260Y0300931D01*
X0049082Y0300931D01*
X0051460Y0303308D01*
X0051460Y0302928D01*
X0054857Y0299531D01*
X0059662Y0299531D01*
X0063060Y0302928D01*
X0063060Y0307733D01*
X0059662Y0311131D01*
X0054857Y0311131D01*
X0053239Y0309513D02*
X0049300Y0309513D01*
X0047260Y0309513D02*
X0047260Y0309513D01*
X0047260Y0307914D02*
X0047260Y0307914D01*
X0047260Y0306316D02*
X0047260Y0306316D01*
X0047260Y0305331D02*
X0042860Y0305331D01*
X0042860Y0303508D01*
X0045437Y0300931D01*
X0047260Y0300931D01*
X0047260Y0305331D01*
X0047260Y0305331D01*
X0047260Y0304717D02*
X0047260Y0304717D01*
X0047260Y0303119D02*
X0047260Y0303119D01*
X0047260Y0301520D02*
X0047260Y0301520D01*
X0049672Y0301520D02*
X0052868Y0301520D01*
X0051460Y0303119D02*
X0051270Y0303119D01*
X0054466Y0299922D02*
X0005800Y0299922D01*
X0005800Y0301520D02*
X0044848Y0301520D01*
X0043249Y0303119D02*
X0005800Y0303119D01*
X0005800Y0304717D02*
X0042860Y0304717D01*
X0042860Y0306316D02*
X0005800Y0306316D01*
X0005800Y0307914D02*
X0043621Y0307914D01*
X0045219Y0309513D02*
X0005800Y0309513D01*
X0005800Y0298323D02*
X0133581Y0298323D01*
X0133649Y0298488D02*
X0132706Y0296210D01*
X0132706Y0293743D01*
X0133649Y0291464D01*
X0135137Y0289976D01*
X0133649Y0288488D01*
X0132706Y0286210D01*
X0132706Y0283743D01*
X0133649Y0281464D01*
X0135137Y0279976D01*
X0133649Y0278488D01*
X0132706Y0276210D01*
X0132706Y0273743D01*
X0133649Y0271464D01*
X0135137Y0269976D01*
X0133649Y0268488D01*
X0132706Y0266210D01*
X0132706Y0263743D01*
X0133649Y0261464D01*
X0135137Y0259976D01*
X0133649Y0258488D01*
X0132706Y0256210D01*
X0132706Y0253743D01*
X0133649Y0251464D01*
X0135137Y0249976D01*
X0133649Y0248488D01*
X0132706Y0246210D01*
X0132706Y0243743D01*
X0133649Y0241464D01*
X0135137Y0239976D01*
X0133649Y0238488D01*
X0132706Y0236210D01*
X0132706Y0233743D01*
X0133649Y0231464D01*
X0135137Y0229976D01*
X0133649Y0228488D01*
X0132706Y0226210D01*
X0132706Y0223743D01*
X0133649Y0221464D01*
X0135137Y0219976D01*
X0133649Y0218488D01*
X0132706Y0216210D01*
X0132706Y0213743D01*
X0133649Y0211464D01*
X0135137Y0209976D01*
X0133649Y0208488D01*
X0132706Y0206210D01*
X0132706Y0203743D01*
X0133649Y0201464D01*
X0135393Y0199720D01*
X0136634Y0199206D01*
X0136390Y0199082D01*
X0135779Y0198638D01*
X0135244Y0198103D01*
X0134800Y0197492D01*
X0134457Y0196819D01*
X0134224Y0196100D01*
X0134106Y0195354D01*
X0134105Y0195176D01*
X0141705Y0195176D01*
X0141705Y0194776D01*
X0134106Y0194776D01*
X0134106Y0194599D01*
X0134224Y0193852D01*
X0134457Y0193134D01*
X0134800Y0192461D01*
X0135244Y0191849D01*
X0135779Y0191315D01*
X0136390Y0190871D01*
X0136634Y0190746D01*
X0135393Y0190232D01*
X0133649Y0188488D01*
X0132706Y0186210D01*
X0132706Y0183743D01*
X0133649Y0181464D01*
X0135137Y0179976D01*
X0133649Y0178488D01*
X0132706Y0176210D01*
X0132706Y0173743D01*
X0133649Y0171464D01*
X0135137Y0169976D01*
X0133649Y0168488D01*
X0132706Y0166210D01*
X0132706Y0163743D01*
X0133649Y0161464D01*
X0135137Y0159976D01*
X0133649Y0158488D01*
X0132706Y0156210D01*
X0132706Y0153743D01*
X0133649Y0151464D01*
X0135137Y0149976D01*
X0133649Y0148488D01*
X0132706Y0146210D01*
X0132706Y0143743D01*
X0133649Y0141464D01*
X0135137Y0139976D01*
X0133649Y0138488D01*
X0132706Y0136210D01*
X0132706Y0133743D01*
X0133649Y0131464D01*
X0135137Y0129976D01*
X0133649Y0128488D01*
X0132706Y0126210D01*
X0132706Y0123743D01*
X0133649Y0121464D01*
X0135137Y0119976D01*
X0133649Y0118488D01*
X0132706Y0116210D01*
X0132706Y0113743D01*
X0133649Y0111464D01*
X0135393Y0109720D01*
X0137672Y0108776D01*
X0146139Y0108776D01*
X0148418Y0109720D01*
X0150162Y0111464D01*
X0151105Y0113743D01*
X0151105Y0116210D01*
X0150162Y0118488D01*
X0148674Y0119976D01*
X0150162Y0121464D01*
X0151105Y0123743D01*
X0151105Y0126210D01*
X0150162Y0128488D01*
X0148674Y0129976D01*
X0150162Y0131464D01*
X0151105Y0133743D01*
X0151105Y0136210D01*
X0150162Y0138488D01*
X0148674Y0139976D01*
X0150162Y0141464D01*
X0151105Y0143743D01*
X0151105Y0146210D01*
X0150162Y0148488D01*
X0148674Y0149976D01*
X0150162Y0151464D01*
X0151105Y0153743D01*
X0151105Y0156210D01*
X0150162Y0158488D01*
X0148674Y0159976D01*
X0150162Y0161464D01*
X0151105Y0163743D01*
X0151105Y0166210D01*
X0150162Y0168488D01*
X0148674Y0169976D01*
X0150162Y0171464D01*
X0151105Y0173743D01*
X0151105Y0176210D01*
X0150162Y0178488D01*
X0148674Y0179976D01*
X0150162Y0181464D01*
X0151105Y0183743D01*
X0151105Y0186210D01*
X0150162Y0188488D01*
X0148418Y0190232D01*
X0147177Y0190746D01*
X0147421Y0190871D01*
X0148032Y0191315D01*
X0148567Y0191849D01*
X0149011Y0192461D01*
X0149354Y0193134D01*
X0149587Y0193852D01*
X0149705Y0194599D01*
X0149705Y0194776D01*
X0142106Y0194776D01*
X0142106Y0195176D01*
X0149705Y0195176D01*
X0149705Y0195354D01*
X0149587Y0196100D01*
X0149354Y0196819D01*
X0149011Y0197492D01*
X0148567Y0198103D01*
X0148032Y0198638D01*
X0147421Y0199082D01*
X0147177Y0199206D01*
X0148418Y0199720D01*
X0150162Y0201464D01*
X0151105Y0203743D01*
X0151105Y0206210D01*
X0150162Y0208488D01*
X0148674Y0209976D01*
X0150162Y0211464D01*
X0151105Y0213743D01*
X0151105Y0216210D01*
X0150162Y0218488D01*
X0148674Y0219976D01*
X0150162Y0221464D01*
X0151105Y0223743D01*
X0151105Y0226210D01*
X0150162Y0228488D01*
X0148674Y0229976D01*
X0150162Y0231464D01*
X0151105Y0233743D01*
X0151105Y0236210D01*
X0150162Y0238488D01*
X0148674Y0239976D01*
X0150162Y0241464D01*
X0151105Y0243743D01*
X0151105Y0246210D01*
X0150162Y0248488D01*
X0148674Y0249976D01*
X0150162Y0251464D01*
X0151105Y0253743D01*
X0151105Y0256210D01*
X0150162Y0258488D01*
X0148674Y0259976D01*
X0150162Y0261464D01*
X0151105Y0263743D01*
X0151105Y0266210D01*
X0150162Y0268488D01*
X0148674Y0269976D01*
X0150162Y0271464D01*
X0151105Y0273743D01*
X0151105Y0276210D01*
X0150162Y0278488D01*
X0148674Y0279976D01*
X0150162Y0281464D01*
X0151105Y0283743D01*
X0151105Y0286210D01*
X0150162Y0288488D01*
X0148674Y0289976D01*
X0150162Y0291464D01*
X0151105Y0293743D01*
X0151105Y0296210D01*
X0150162Y0298488D01*
X0148674Y0299976D01*
X0150162Y0301464D01*
X0151105Y0303743D01*
X0151105Y0306210D01*
X0150162Y0308488D01*
X0148418Y0310232D01*
X0146139Y0311176D01*
X0137672Y0311176D01*
X0135393Y0310232D01*
X0133649Y0308488D01*
X0132706Y0306210D01*
X0132706Y0303743D01*
X0133649Y0301464D01*
X0135137Y0299976D01*
X0133649Y0298488D01*
X0132919Y0296725D02*
X0005800Y0296725D01*
X0005800Y0295126D02*
X0132706Y0295126D01*
X0132795Y0293528D02*
X0005800Y0293528D01*
X0005800Y0291929D02*
X0133457Y0291929D01*
X0134783Y0290331D02*
X0005800Y0290331D01*
X0005800Y0288732D02*
X0133893Y0288732D01*
X0133088Y0287134D02*
X0005800Y0287134D01*
X0005800Y0285535D02*
X0066624Y0285535D01*
X0066708Y0285619D02*
X0063310Y0282221D01*
X0063310Y0277416D01*
X0066708Y0274019D01*
X0071513Y0274019D01*
X0074910Y0277416D01*
X0074910Y0282221D01*
X0071513Y0285619D01*
X0066708Y0285619D01*
X0065025Y0283937D02*
X0060951Y0283937D01*
X0059465Y0285422D02*
X0062863Y0282024D01*
X0062863Y0277220D01*
X0059465Y0273822D01*
X0054661Y0273822D01*
X0051263Y0277220D01*
X0051263Y0277600D01*
X0048886Y0275222D01*
X0047063Y0275222D01*
X0047063Y0279622D01*
X0047063Y0279622D01*
X0047063Y0275222D01*
X0045240Y0275222D01*
X0042663Y0277800D01*
X0042663Y0279622D01*
X0047063Y0279622D01*
X0047063Y0279622D01*
X0047063Y0279622D01*
X0047063Y0284022D01*
X0048886Y0284022D01*
X0051263Y0281645D01*
X0051263Y0282024D01*
X0054661Y0285422D01*
X0059465Y0285422D01*
X0062549Y0282338D02*
X0063427Y0282338D01*
X0063310Y0280739D02*
X0062863Y0280739D01*
X0062863Y0279141D02*
X0063310Y0279141D01*
X0063310Y0277542D02*
X0062863Y0277542D01*
X0061587Y0275944D02*
X0064783Y0275944D01*
X0066381Y0274345D02*
X0059989Y0274345D01*
X0054137Y0274345D02*
X0005800Y0274345D01*
X0005800Y0272747D02*
X0133118Y0272747D01*
X0132706Y0274345D02*
X0111839Y0274345D01*
X0111513Y0274019D02*
X0114910Y0277416D01*
X0114910Y0282221D01*
X0111513Y0285619D01*
X0106708Y0285619D01*
X0103310Y0282221D01*
X0103310Y0277416D01*
X0106708Y0274019D01*
X0111513Y0274019D01*
X0113438Y0275944D02*
X0132706Y0275944D01*
X0133258Y0277542D02*
X0114910Y0277542D01*
X0114910Y0279141D02*
X0134302Y0279141D01*
X0134374Y0280739D02*
X0114910Y0280739D01*
X0114794Y0282338D02*
X0133288Y0282338D01*
X0132706Y0283937D02*
X0113195Y0283937D01*
X0111597Y0285535D02*
X0132706Y0285535D01*
X0135083Y0299922D02*
X0112809Y0299922D01*
X0112300Y0299413D02*
X0115698Y0302810D01*
X0115698Y0307615D01*
X0112300Y0311013D01*
X0107495Y0311013D01*
X0104098Y0307615D01*
X0104098Y0302810D01*
X0107495Y0299413D01*
X0112300Y0299413D01*
X0114408Y0301520D02*
X0133626Y0301520D01*
X0132964Y0303119D02*
X0115698Y0303119D01*
X0115698Y0304717D02*
X0132706Y0304717D01*
X0132749Y0306316D02*
X0115698Y0306316D01*
X0115398Y0307914D02*
X0133412Y0307914D01*
X0134674Y0309513D02*
X0113800Y0309513D01*
X0105995Y0309513D02*
X0073800Y0309513D01*
X0072300Y0311013D02*
X0067495Y0311013D01*
X0064098Y0307615D01*
X0064098Y0302810D01*
X0067495Y0299413D01*
X0072300Y0299413D01*
X0075698Y0302810D01*
X0075698Y0307615D01*
X0072300Y0311013D01*
X0075398Y0307914D02*
X0104397Y0307914D01*
X0104098Y0306316D02*
X0075698Y0306316D01*
X0075698Y0304717D02*
X0104098Y0304717D01*
X0104098Y0303119D02*
X0075698Y0303119D01*
X0074408Y0301520D02*
X0105388Y0301520D01*
X0106986Y0299922D02*
X0072809Y0299922D01*
X0066986Y0299922D02*
X0060053Y0299922D01*
X0061652Y0301520D02*
X0065388Y0301520D01*
X0064098Y0303119D02*
X0063060Y0303119D01*
X0063060Y0304717D02*
X0064098Y0304717D01*
X0064098Y0306316D02*
X0063060Y0306316D01*
X0062879Y0307914D02*
X0064397Y0307914D01*
X0065995Y0309513D02*
X0061280Y0309513D01*
X0059682Y0311111D02*
X0137515Y0311111D01*
X0146296Y0311111D02*
X0163542Y0311111D01*
X0161487Y0309513D02*
X0149137Y0309513D01*
X0150399Y0307914D02*
X0161110Y0307914D01*
X0161110Y0306316D02*
X0151062Y0306316D01*
X0151105Y0304717D02*
X0161110Y0304717D01*
X0161110Y0303119D02*
X0150847Y0303119D01*
X0150185Y0301520D02*
X0161110Y0301520D01*
X0161928Y0299922D02*
X0148728Y0299922D01*
X0150230Y0298323D02*
X0161973Y0298323D01*
X0161311Y0296725D02*
X0150892Y0296725D01*
X0151105Y0295126D02*
X0161110Y0295126D01*
X0161220Y0293528D02*
X0151016Y0293528D01*
X0150354Y0291929D02*
X0161882Y0291929D01*
X0163248Y0290331D02*
X0149028Y0290331D01*
X0149918Y0288732D02*
X0162279Y0288732D01*
X0161480Y0287134D02*
X0150723Y0287134D01*
X0151105Y0285535D02*
X0161110Y0285535D01*
X0161110Y0283937D02*
X0151105Y0283937D01*
X0150523Y0282338D02*
X0161712Y0282338D01*
X0162839Y0280739D02*
X0149437Y0280739D01*
X0149509Y0279141D02*
X0162688Y0279141D01*
X0161650Y0277542D02*
X0150553Y0277542D01*
X0151105Y0275944D02*
X0161110Y0275944D01*
X0161110Y0274345D02*
X0151105Y0274345D01*
X0150693Y0272747D02*
X0161543Y0272747D01*
X0162430Y0271148D02*
X0149846Y0271148D01*
X0149100Y0269550D02*
X0163097Y0269550D01*
X0161819Y0267951D02*
X0150384Y0267951D01*
X0151046Y0266353D02*
X0161157Y0266353D01*
X0161110Y0264754D02*
X0151105Y0264754D01*
X0150862Y0263156D02*
X0161374Y0263156D01*
X0162036Y0261557D02*
X0150200Y0261557D01*
X0148691Y0259959D02*
X0163506Y0259959D01*
X0161989Y0258360D02*
X0150215Y0258360D01*
X0150877Y0256762D02*
X0161326Y0256762D01*
X0161110Y0255163D02*
X0151105Y0255163D01*
X0151032Y0253565D02*
X0161204Y0253565D01*
X0161866Y0251966D02*
X0150370Y0251966D01*
X0149065Y0250368D02*
X0163210Y0250368D01*
X0162316Y0248769D02*
X0149881Y0248769D01*
X0150707Y0247171D02*
X0161496Y0247171D01*
X0161110Y0245572D02*
X0151105Y0245572D01*
X0151105Y0243974D02*
X0161110Y0243974D01*
X0161697Y0242375D02*
X0150539Y0242375D01*
X0149474Y0240777D02*
X0162801Y0240777D01*
X0162725Y0239178D02*
X0149472Y0239178D01*
X0150538Y0237580D02*
X0161665Y0237580D01*
X0161110Y0235981D02*
X0151105Y0235981D01*
X0151105Y0234383D02*
X0161110Y0234383D01*
X0161527Y0232784D02*
X0150708Y0232784D01*
X0149883Y0231186D02*
X0162393Y0231186D01*
X0163134Y0229587D02*
X0149063Y0229587D01*
X0150369Y0227989D02*
X0161835Y0227989D01*
X0161172Y0226390D02*
X0151031Y0226390D01*
X0151105Y0224792D02*
X0161110Y0224792D01*
X0161358Y0223193D02*
X0150878Y0223193D01*
X0150216Y0221595D02*
X0162020Y0221595D01*
X0163543Y0219996D02*
X0148693Y0219996D01*
X0150199Y0218398D02*
X0162004Y0218398D01*
X0161342Y0216799D02*
X0150861Y0216799D01*
X0151105Y0215201D02*
X0161110Y0215201D01*
X0161189Y0213602D02*
X0151047Y0213602D01*
X0150385Y0212003D02*
X0161851Y0212003D01*
X0163173Y0210405D02*
X0149102Y0210405D01*
X0149844Y0208806D02*
X0162353Y0208806D01*
X0161511Y0207208D02*
X0150692Y0207208D01*
X0151105Y0205609D02*
X0161110Y0205609D01*
X0161110Y0204011D02*
X0151105Y0204011D01*
X0150554Y0202412D02*
X0161681Y0202412D01*
X0162764Y0200814D02*
X0149511Y0200814D01*
X0147199Y0199215D02*
X0165039Y0199215D01*
X0163278Y0197617D02*
X0148920Y0197617D01*
X0149600Y0196018D02*
X0162609Y0196018D01*
X0162545Y0194420D02*
X0149677Y0194420D01*
X0149195Y0192821D02*
X0163047Y0192821D01*
X0164399Y0191223D02*
X0147905Y0191223D01*
X0149026Y0189624D02*
X0163171Y0189624D01*
X0161850Y0188026D02*
X0150353Y0188026D01*
X0151015Y0186427D02*
X0161188Y0186427D01*
X0161110Y0184829D02*
X0151105Y0184829D01*
X0150893Y0183230D02*
X0161343Y0183230D01*
X0162005Y0181632D02*
X0150231Y0181632D01*
X0148730Y0180033D02*
X0163545Y0180033D01*
X0162019Y0178435D02*
X0150184Y0178435D01*
X0150846Y0176836D02*
X0161357Y0176836D01*
X0161110Y0175238D02*
X0151105Y0175238D01*
X0151062Y0173639D02*
X0161173Y0173639D01*
X0161835Y0172041D02*
X0150400Y0172041D01*
X0149139Y0170442D02*
X0163136Y0170442D01*
X0162390Y0168844D02*
X0149806Y0168844D01*
X0150677Y0167245D02*
X0161527Y0167245D01*
X0161110Y0165647D02*
X0151105Y0165647D01*
X0151105Y0164048D02*
X0161110Y0164048D01*
X0161666Y0162450D02*
X0150570Y0162450D01*
X0149548Y0160851D02*
X0162727Y0160851D01*
X0162799Y0159253D02*
X0149397Y0159253D01*
X0150507Y0157654D02*
X0161696Y0157654D01*
X0161110Y0156056D02*
X0151105Y0156056D01*
X0151105Y0154457D02*
X0161110Y0154457D01*
X0161497Y0152859D02*
X0150739Y0152859D01*
X0149957Y0151260D02*
X0162318Y0151260D01*
X0163208Y0149662D02*
X0148988Y0149662D01*
X0150338Y0148063D02*
X0161865Y0148063D01*
X0161203Y0146465D02*
X0151000Y0146465D01*
X0151105Y0144866D02*
X0161110Y0144866D01*
X0161327Y0143268D02*
X0150908Y0143268D01*
X0150246Y0141669D02*
X0161989Y0141669D01*
X0163508Y0140070D02*
X0148768Y0140070D01*
X0150168Y0138472D02*
X0162035Y0138472D01*
X0161373Y0136873D02*
X0150831Y0136873D01*
X0151105Y0135275D02*
X0161110Y0135275D01*
X0161158Y0133676D02*
X0151078Y0133676D01*
X0150416Y0132078D02*
X0161820Y0132078D01*
X0163099Y0130479D02*
X0149177Y0130479D01*
X0149769Y0128881D02*
X0162428Y0128881D01*
X0161542Y0127282D02*
X0150661Y0127282D01*
X0151105Y0125684D02*
X0161110Y0125684D01*
X0161110Y0124085D02*
X0151105Y0124085D01*
X0150585Y0122487D02*
X0161651Y0122487D01*
X0162690Y0120888D02*
X0149586Y0120888D01*
X0149360Y0119290D02*
X0162837Y0119290D01*
X0161711Y0117691D02*
X0150492Y0117691D01*
X0151105Y0116093D02*
X0161110Y0116093D01*
X0161110Y0114494D02*
X0151105Y0114494D01*
X0150755Y0112896D02*
X0161481Y0112896D01*
X0162281Y0111297D02*
X0149995Y0111297D01*
X0148366Y0109699D02*
X0164025Y0109699D01*
X0170494Y0109699D02*
X0191197Y0109699D01*
X0189598Y0111297D02*
X0172239Y0111297D01*
X0173038Y0112896D02*
X0188000Y0112896D01*
X0186401Y0114494D02*
X0173410Y0114494D01*
X0173410Y0116093D02*
X0184803Y0116093D01*
X0183204Y0117691D02*
X0172808Y0117691D01*
X0171683Y0119290D02*
X0181606Y0119290D01*
X0180007Y0120888D02*
X0171830Y0120888D01*
X0172869Y0122487D02*
X0178409Y0122487D01*
X0176810Y0124085D02*
X0173410Y0124085D01*
X0173410Y0125684D02*
X0175212Y0125684D01*
X0174256Y0127282D02*
X0172978Y0127282D01*
X0172092Y0128881D02*
X0174041Y0128881D01*
X0174041Y0130479D02*
X0171421Y0130479D01*
X0172700Y0132078D02*
X0174041Y0132078D01*
X0174041Y0133676D02*
X0173362Y0133676D01*
X0173410Y0135275D02*
X0174041Y0135275D01*
X0174041Y0136873D02*
X0173147Y0136873D01*
X0172485Y0138472D02*
X0174041Y0138472D01*
X0174041Y0140070D02*
X0171012Y0140070D01*
X0192795Y0108100D02*
X0005800Y0108100D01*
X0005800Y0106502D02*
X0194394Y0106502D01*
X0195992Y0104903D02*
X0113721Y0104903D01*
X0114346Y0104645D02*
X0111332Y0105893D01*
X0108070Y0105893D01*
X0105056Y0104645D01*
X0102749Y0102338D01*
X0101501Y0099324D01*
X0101501Y0096062D01*
X0102749Y0093048D01*
X0105056Y0090741D01*
X0108070Y0089493D01*
X0111332Y0089493D01*
X0114346Y0090741D01*
X0116652Y0093048D01*
X0117901Y0096062D01*
X0117901Y0099324D01*
X0116652Y0102338D01*
X0114346Y0104645D01*
X0115686Y0103305D02*
X0197591Y0103305D01*
X0199189Y0101706D02*
X0116914Y0101706D01*
X0117576Y0100108D02*
X0200788Y0100108D01*
X0202386Y0098509D02*
X0117901Y0098509D01*
X0117901Y0096911D02*
X0203985Y0096911D01*
X0205583Y0095312D02*
X0117590Y0095312D01*
X0116928Y0093714D02*
X0207182Y0093714D01*
X0208780Y0092115D02*
X0115720Y0092115D01*
X0113803Y0090517D02*
X0210520Y0090517D01*
X0213233Y0100108D02*
X0297874Y0100108D01*
X0296276Y0101706D02*
X0211634Y0101706D01*
X0210036Y0103305D02*
X0294677Y0103305D01*
X0293079Y0104903D02*
X0208437Y0104903D01*
X0206839Y0106502D02*
X0291480Y0106502D01*
X0297531Y0112896D02*
X0322121Y0112896D01*
X0321357Y0114494D02*
X0295933Y0114494D01*
X0294334Y0116093D02*
X0321065Y0116093D01*
X0321141Y0117691D02*
X0292736Y0117691D01*
X0291137Y0119290D02*
X0321803Y0119290D01*
X0323196Y0120888D02*
X0289539Y0120888D01*
X0287940Y0122487D02*
X0322530Y0122487D01*
X0321527Y0124085D02*
X0286342Y0124085D01*
X0284743Y0125684D02*
X0321065Y0125684D01*
X0321065Y0127282D02*
X0283145Y0127282D01*
X0281244Y0128881D02*
X0321633Y0128881D01*
X0322378Y0140070D02*
X0312115Y0140070D01*
X0313831Y0141669D02*
X0324539Y0141669D01*
X0323729Y0143268D02*
X0314627Y0143268D01*
X0315003Y0144866D02*
X0322722Y0144866D01*
X0322465Y0146354D02*
X0329464Y0146354D01*
X0329464Y0146354D01*
X0329464Y0150754D01*
X0326518Y0150754D01*
X0325834Y0150646D01*
X0325176Y0150432D01*
X0324558Y0150118D01*
X0323998Y0149710D01*
X0323508Y0149221D01*
X0323101Y0148660D01*
X0322787Y0148043D01*
X0322573Y0147385D01*
X0322465Y0146701D01*
X0322465Y0146354D01*
X0322465Y0146465D02*
X0315003Y0146465D01*
X0314415Y0148063D02*
X0322797Y0148063D01*
X0323949Y0149662D02*
X0313319Y0149662D01*
X0329464Y0149662D02*
X0329465Y0149662D01*
X0329464Y0148063D02*
X0329465Y0148063D01*
X0329464Y0146465D02*
X0329465Y0146465D01*
X0329464Y0152859D02*
X0329465Y0152859D01*
X0329464Y0154457D02*
X0329465Y0154457D01*
X0329464Y0156056D02*
X0329465Y0156056D01*
X0334739Y0152859D02*
X0344395Y0152859D01*
X0344395Y0154457D02*
X0336036Y0154457D01*
X0336465Y0156056D02*
X0344395Y0156056D01*
X0344395Y0157654D02*
X0336269Y0157654D01*
X0335389Y0159253D02*
X0344395Y0159253D01*
X0344395Y0160851D02*
X0333935Y0160851D01*
X0336362Y0162450D02*
X0344395Y0162450D01*
X0344395Y0164048D02*
X0337387Y0164048D01*
X0337865Y0165647D02*
X0344395Y0165647D01*
X0344395Y0167245D02*
X0337865Y0167245D01*
X0337311Y0168844D02*
X0344395Y0168844D01*
X0344395Y0170442D02*
X0336179Y0170442D01*
X0335953Y0172041D02*
X0344395Y0172041D01*
X0344312Y0173639D02*
X0337218Y0173639D01*
X0337865Y0175238D02*
X0343650Y0175238D01*
X0343614Y0176836D02*
X0337865Y0176836D01*
X0337481Y0178435D02*
X0344049Y0178435D01*
X0345147Y0180033D02*
X0336588Y0180033D01*
X0335544Y0181632D02*
X0353385Y0181632D01*
X0351881Y0183230D02*
X0337048Y0183230D01*
X0337711Y0184829D02*
X0351219Y0184829D01*
X0351065Y0186427D02*
X0337865Y0186427D01*
X0337650Y0188026D02*
X0351279Y0188026D01*
X0351941Y0189624D02*
X0336988Y0189624D01*
X0335398Y0191223D02*
X0353531Y0191223D01*
X0365398Y0191223D02*
X0389901Y0191223D01*
X0389901Y0192821D02*
X0261187Y0192821D01*
X0261617Y0194420D02*
X0389901Y0194420D01*
X0389901Y0196018D02*
X0261617Y0196018D01*
X0261083Y0197617D02*
X0389901Y0197617D01*
X0389901Y0199215D02*
X0260065Y0199215D01*
X0259905Y0200814D02*
X0389901Y0200814D01*
X0389901Y0202412D02*
X0261017Y0202412D01*
X0261617Y0204011D02*
X0389901Y0204011D01*
X0389901Y0205609D02*
X0261617Y0205609D01*
X0261253Y0207208D02*
X0389901Y0207208D01*
X0389901Y0208806D02*
X0260473Y0208806D01*
X0258798Y0210405D02*
X0389901Y0210405D01*
X0389901Y0212003D02*
X0259105Y0212003D01*
X0259979Y0213602D02*
X0389901Y0213602D01*
X0389901Y0189624D02*
X0366988Y0189624D01*
X0367650Y0188026D02*
X0389901Y0188026D01*
X0389901Y0186427D02*
X0367865Y0186427D01*
X0367711Y0184829D02*
X0389901Y0184829D01*
X0389901Y0183230D02*
X0367048Y0183230D01*
X0365544Y0181632D02*
X0389901Y0181632D01*
X0389901Y0180033D02*
X0366588Y0180033D01*
X0367481Y0178435D02*
X0389901Y0178435D01*
X0389901Y0176836D02*
X0367865Y0176836D01*
X0367865Y0175238D02*
X0389901Y0175238D01*
X0389901Y0173639D02*
X0367218Y0173639D01*
X0365953Y0172041D02*
X0389901Y0172041D01*
X0389901Y0170442D02*
X0366179Y0170442D01*
X0367311Y0168844D02*
X0389901Y0168844D01*
X0389901Y0167245D02*
X0367865Y0167245D01*
X0367865Y0165647D02*
X0389901Y0165647D01*
X0389901Y0164048D02*
X0367387Y0164048D01*
X0366362Y0162450D02*
X0376411Y0162450D01*
X0374516Y0160851D02*
X0363935Y0160851D01*
X0365389Y0159253D02*
X0373646Y0159253D01*
X0373217Y0157654D02*
X0366269Y0157654D01*
X0366465Y0156056D02*
X0373217Y0156056D01*
X0373753Y0154457D02*
X0366036Y0154457D01*
X0364739Y0152859D02*
X0374775Y0152859D01*
X0374925Y0151260D02*
X0353195Y0151260D01*
X0353195Y0149662D02*
X0353949Y0149662D01*
X0354190Y0152859D02*
X0353195Y0152859D01*
X0359464Y0152859D02*
X0359465Y0152859D01*
X0359464Y0154457D02*
X0359465Y0154457D01*
X0359464Y0156056D02*
X0359465Y0156056D01*
X0359464Y0149662D02*
X0359465Y0149662D01*
X0359464Y0148063D02*
X0359465Y0148063D01*
X0359464Y0146465D02*
X0359465Y0146465D01*
X0364980Y0149662D02*
X0373815Y0149662D01*
X0373217Y0148063D02*
X0366132Y0148063D01*
X0366465Y0146465D02*
X0373217Y0146465D01*
X0373584Y0144866D02*
X0366207Y0144866D01*
X0365200Y0143268D02*
X0374366Y0143268D01*
X0376048Y0141669D02*
X0364390Y0141669D01*
X0366551Y0140070D02*
X0389901Y0140070D01*
X0389901Y0138472D02*
X0367465Y0138472D01*
X0367865Y0136873D02*
X0389901Y0136873D01*
X0389901Y0135275D02*
X0367865Y0135275D01*
X0367233Y0133676D02*
X0389901Y0133676D01*
X0389901Y0132078D02*
X0365991Y0132078D01*
X0366142Y0130479D02*
X0389901Y0130479D01*
X0389901Y0128881D02*
X0367296Y0128881D01*
X0367865Y0127282D02*
X0389901Y0127282D01*
X0389901Y0125684D02*
X0367865Y0125684D01*
X0367403Y0124085D02*
X0389901Y0124085D01*
X0389901Y0122487D02*
X0366400Y0122487D01*
X0365733Y0120888D02*
X0389901Y0120888D01*
X0389901Y0119290D02*
X0367127Y0119290D01*
X0367789Y0117691D02*
X0389901Y0117691D01*
X0389901Y0116093D02*
X0367865Y0116093D01*
X0367572Y0114494D02*
X0389901Y0114494D01*
X0389901Y0112896D02*
X0366808Y0112896D01*
X0365012Y0111297D02*
X0389901Y0111297D01*
X0389901Y0141669D02*
X0388787Y0141669D01*
X0388424Y0162450D02*
X0389901Y0162450D01*
X0331429Y0109699D02*
X0300728Y0109699D01*
X0299130Y0111297D02*
X0323917Y0111297D01*
X0328232Y0106502D02*
X0303926Y0106502D01*
X0305524Y0104903D02*
X0326633Y0104903D01*
X0325035Y0103305D02*
X0307123Y0103305D01*
X0308721Y0101706D02*
X0323436Y0101706D01*
X0321838Y0100108D02*
X0310320Y0100108D01*
X0311918Y0098509D02*
X0320239Y0098509D01*
X0318641Y0096911D02*
X0313517Y0096911D01*
X0315115Y0095312D02*
X0317042Y0095312D01*
X0309064Y0088918D02*
X0277426Y0088918D01*
X0278281Y0090517D02*
X0307466Y0090517D01*
X0305867Y0092115D02*
X0278543Y0092115D01*
X0278335Y0093714D02*
X0304269Y0093714D01*
X0302670Y0095312D02*
X0277558Y0095312D01*
X0275483Y0096911D02*
X0301071Y0096911D01*
X0299473Y0098509D02*
X0272645Y0098509D01*
X0269298Y0088918D02*
X0005800Y0088918D01*
X0005800Y0087320D02*
X0271560Y0087320D01*
X0275164Y0087320D02*
X0310663Y0087320D01*
X0312261Y0085721D02*
X0005800Y0085721D01*
X0005800Y0084123D02*
X0314246Y0084123D01*
X0312235Y0076737D02*
X0310043Y0076737D01*
X0310043Y0071184D01*
X0315595Y0071184D01*
X0315595Y0073376D01*
X0312235Y0076737D01*
X0312842Y0076130D02*
X0324580Y0076130D01*
X0322982Y0074532D02*
X0314440Y0074532D01*
X0315595Y0072933D02*
X0322406Y0072933D01*
X0322406Y0071334D02*
X0315595Y0071334D01*
X0315595Y0070816D02*
X0310043Y0070816D01*
X0310043Y0071184D01*
X0309674Y0071184D01*
X0309674Y0070816D01*
X0304121Y0070816D01*
X0304121Y0068624D01*
X0307482Y0065263D01*
X0309674Y0065263D01*
X0309674Y0070816D01*
X0310043Y0070816D01*
X0310043Y0065263D01*
X0312235Y0065263D01*
X0315595Y0068624D01*
X0315595Y0070816D01*
X0315595Y0069736D02*
X0322406Y0069736D01*
X0322406Y0068137D02*
X0315109Y0068137D01*
X0313511Y0066539D02*
X0323911Y0066539D01*
X0325510Y0064940D02*
X0005800Y0064940D01*
X0005800Y0063342D02*
X0389901Y0063342D01*
X0389901Y0064940D02*
X0333577Y0064940D01*
X0310043Y0066539D02*
X0309674Y0066539D01*
X0309674Y0068137D02*
X0310043Y0068137D01*
X0310043Y0069736D02*
X0309674Y0069736D01*
X0309674Y0071184D02*
X0304121Y0071184D01*
X0304121Y0073376D01*
X0307482Y0076737D01*
X0309674Y0076737D01*
X0309674Y0071184D01*
X0309674Y0071334D02*
X0310043Y0071334D01*
X0310043Y0072933D02*
X0309674Y0072933D01*
X0309674Y0074532D02*
X0310043Y0074532D01*
X0310043Y0076130D02*
X0309674Y0076130D01*
X0306875Y0076130D02*
X0005800Y0076130D01*
X0005800Y0074532D02*
X0305276Y0074532D01*
X0304121Y0072933D02*
X0005800Y0072933D01*
X0005800Y0071334D02*
X0304121Y0071334D01*
X0304121Y0069736D02*
X0005800Y0069736D01*
X0005800Y0068137D02*
X0304607Y0068137D01*
X0306206Y0066539D02*
X0005800Y0066539D01*
X0005800Y0061743D02*
X0389901Y0061743D01*
X0389901Y0060145D02*
X0005800Y0060145D01*
X0005800Y0058546D02*
X0389901Y0058546D01*
X0389901Y0056948D02*
X0005800Y0056948D01*
X0005800Y0055349D02*
X0389901Y0055349D01*
X0389901Y0053751D02*
X0005800Y0053751D01*
X0005800Y0052152D02*
X0389901Y0052152D01*
X0389901Y0050554D02*
X0005800Y0050554D01*
X0005800Y0048955D02*
X0389901Y0048955D01*
X0389901Y0047357D02*
X0005800Y0047357D01*
X0005800Y0045758D02*
X0389901Y0045758D01*
X0389901Y0044160D02*
X0005800Y0044160D01*
X0005800Y0042561D02*
X0389901Y0042561D01*
X0389901Y0040963D02*
X0005800Y0040963D01*
X0005800Y0039364D02*
X0389901Y0039364D01*
X0389901Y0037766D02*
X0005800Y0037766D01*
X0005800Y0036167D02*
X0389901Y0036167D01*
X0389901Y0034569D02*
X0005800Y0034569D01*
X0005800Y0032970D02*
X0012766Y0032970D01*
X0008677Y0031372D02*
X0005800Y0031372D01*
X0005800Y0029773D02*
X0006156Y0029773D01*
X0020730Y0032970D02*
X0374971Y0032970D01*
X0370882Y0031372D02*
X0024819Y0031372D01*
X0027340Y0029773D02*
X0368361Y0029773D01*
X0366762Y0028175D02*
X0028939Y0028175D01*
X0030357Y0026576D02*
X0365344Y0026576D01*
X0364421Y0024978D02*
X0031280Y0024978D01*
X0032203Y0023379D02*
X0363498Y0023379D01*
X0363012Y0021781D02*
X0032689Y0021781D01*
X0033117Y0020182D02*
X0362584Y0020182D01*
X0362253Y0018584D02*
X0033448Y0018584D01*
X0033448Y0016985D02*
X0362253Y0016985D01*
X0362253Y0015387D02*
X0033448Y0015387D01*
X0033244Y0013788D02*
X0362457Y0013788D01*
X0362885Y0012190D02*
X0032816Y0012190D01*
X0032387Y0010591D02*
X0363313Y0010591D01*
X0364147Y0008993D02*
X0031554Y0008993D01*
X0030631Y0007394D02*
X0365070Y0007394D01*
X0387024Y0031372D02*
X0389901Y0031372D01*
X0389901Y0032970D02*
X0382934Y0032970D01*
X0389545Y0029773D02*
X0389901Y0029773D01*
X0329830Y0108100D02*
X0302327Y0108100D01*
X0297149Y0152859D02*
X0273879Y0152859D01*
X0276548Y0154457D02*
X0296603Y0154457D01*
X0296603Y0156056D02*
X0277571Y0156056D01*
X0277953Y0157654D02*
X0297022Y0157654D01*
X0297878Y0159253D02*
X0277864Y0159253D01*
X0277202Y0160851D02*
X0299739Y0160851D01*
X0245588Y0180033D02*
X0230975Y0180033D01*
X0232500Y0178435D02*
X0244090Y0178435D01*
X0243428Y0176836D02*
X0233162Y0176836D01*
X0233410Y0175238D02*
X0243217Y0175238D01*
X0243309Y0173639D02*
X0233346Y0173639D01*
X0232684Y0172041D02*
X0243971Y0172041D01*
X0245301Y0170442D02*
X0231384Y0170442D01*
X0232129Y0168844D02*
X0244398Y0168844D01*
X0243597Y0167245D02*
X0232993Y0167245D01*
X0233410Y0165647D02*
X0243217Y0165647D01*
X0243217Y0164048D02*
X0233410Y0164048D01*
X0232854Y0162450D02*
X0243802Y0162450D01*
X0244893Y0160851D02*
X0231793Y0160851D01*
X0231720Y0159253D02*
X0244807Y0159253D01*
X0243767Y0157654D02*
X0232824Y0157654D01*
X0233410Y0156056D02*
X0243217Y0156056D01*
X0243217Y0154457D02*
X0233410Y0154457D01*
X0233023Y0152859D02*
X0243633Y0152859D01*
X0244484Y0151260D02*
X0232202Y0151260D01*
X0231311Y0149662D02*
X0245216Y0149662D01*
X0243936Y0148063D02*
X0232654Y0148063D01*
X0233316Y0146465D02*
X0243274Y0146465D01*
X0243217Y0144866D02*
X0233410Y0144866D01*
X0233192Y0143268D02*
X0243463Y0143268D01*
X0244125Y0141669D02*
X0232530Y0141669D01*
X0231012Y0140070D02*
X0245625Y0140070D01*
X0244105Y0138472D02*
X0232485Y0138472D01*
X0233147Y0136873D02*
X0243443Y0136873D01*
X0243217Y0135275D02*
X0233410Y0135275D01*
X0233362Y0133676D02*
X0243294Y0133676D01*
X0243956Y0132078D02*
X0232700Y0132078D01*
X0231421Y0130479D02*
X0245264Y0130479D01*
X0244436Y0128881D02*
X0232092Y0128881D01*
X0232978Y0127282D02*
X0243613Y0127282D01*
X0243217Y0125684D02*
X0233410Y0125684D01*
X0233410Y0124085D02*
X0243217Y0124085D01*
X0243787Y0122487D02*
X0232869Y0122487D01*
X0231830Y0120888D02*
X0244855Y0120888D01*
X0244845Y0119290D02*
X0231683Y0119290D01*
X0232808Y0117691D02*
X0243782Y0117691D01*
X0243217Y0116093D02*
X0233410Y0116093D01*
X0233410Y0114494D02*
X0243217Y0114494D01*
X0243617Y0112896D02*
X0233038Y0112896D01*
X0232239Y0111297D02*
X0244446Y0111297D01*
X0246242Y0109699D02*
X0230494Y0109699D01*
X0232515Y0181632D02*
X0244141Y0181632D01*
X0243479Y0183230D02*
X0233177Y0183230D01*
X0233410Y0184829D02*
X0243217Y0184829D01*
X0243259Y0186427D02*
X0233332Y0186427D01*
X0232670Y0188026D02*
X0243921Y0188026D01*
X0245179Y0189624D02*
X0231349Y0189624D01*
X0232164Y0191223D02*
X0244521Y0191223D01*
X0243648Y0192821D02*
X0233008Y0192821D01*
X0233410Y0194420D02*
X0243217Y0194420D01*
X0243217Y0196018D02*
X0233410Y0196018D01*
X0232839Y0197617D02*
X0243751Y0197617D01*
X0244770Y0199215D02*
X0231758Y0199215D01*
X0231755Y0200814D02*
X0244930Y0200814D01*
X0243817Y0202412D02*
X0232838Y0202412D01*
X0233410Y0204011D02*
X0243217Y0204011D01*
X0243217Y0205609D02*
X0233410Y0205609D01*
X0233009Y0207208D02*
X0243582Y0207208D01*
X0244361Y0208806D02*
X0232167Y0208806D01*
X0230320Y0210405D02*
X0246037Y0210405D01*
X0245730Y0212003D02*
X0230943Y0212003D01*
X0231795Y0213602D02*
X0244855Y0213602D01*
X0236404Y0291929D02*
X0232638Y0291929D01*
X0233300Y0293528D02*
X0234806Y0293528D01*
X0320397Y0338286D02*
X0389901Y0338286D01*
X0389901Y0339884D02*
X0321878Y0339884D01*
X0322438Y0341483D02*
X0389901Y0341483D01*
X0389901Y0343081D02*
X0322430Y0343081D01*
X0321855Y0344680D02*
X0389901Y0344680D01*
X0389901Y0346278D02*
X0320336Y0346278D01*
X0322086Y0347877D02*
X0389901Y0347877D01*
X0389901Y0349475D02*
X0323258Y0349475D01*
X0323901Y0351074D02*
X0389901Y0351074D01*
X0389901Y0352672D02*
X0323901Y0352672D01*
X0323579Y0354271D02*
X0389901Y0354271D01*
X0389901Y0355870D02*
X0322859Y0355870D01*
X0321677Y0357468D02*
X0389901Y0357468D01*
X0389901Y0359067D02*
X0323089Y0359067D01*
X0323751Y0360665D02*
X0389901Y0360665D01*
X0389901Y0362264D02*
X0381192Y0362264D01*
X0376714Y0362264D02*
X0323901Y0362264D01*
X0323748Y0363862D02*
X0371691Y0363862D01*
X0368922Y0365461D02*
X0323086Y0365461D01*
X0321670Y0367059D02*
X0367229Y0367059D01*
X0365631Y0368658D02*
X0322867Y0368658D01*
X0323582Y0370256D02*
X0364690Y0370256D01*
X0363767Y0371855D02*
X0323901Y0371855D01*
X0323901Y0373453D02*
X0363137Y0373453D01*
X0362709Y0375052D02*
X0323255Y0375052D01*
X0322079Y0376650D02*
X0362281Y0376650D01*
X0386215Y0363862D02*
X0389901Y0363862D01*
X0389901Y0365461D02*
X0388984Y0365461D01*
X0389901Y0336687D02*
X0322041Y0336687D01*
X0323240Y0335089D02*
X0389901Y0335089D01*
X0389901Y0333490D02*
X0323901Y0333490D01*
X0323901Y0331892D02*
X0389901Y0331892D01*
X0389901Y0330293D02*
X0323597Y0330293D01*
X0322904Y0328695D02*
X0389901Y0328695D01*
X0389901Y0327096D02*
X0321632Y0327096D01*
X0323070Y0325498D02*
X0389901Y0325498D01*
X0389901Y0323899D02*
X0323733Y0323899D01*
X0323901Y0322301D02*
X0389901Y0322301D01*
X0389901Y0320702D02*
X0323766Y0320702D01*
X0323104Y0319104D02*
X0389901Y0319104D01*
X0389901Y0317505D02*
X0321714Y0317505D01*
X0342354Y0258360D02*
X0353731Y0258360D01*
X0353462Y0258273D02*
X0352671Y0257870D01*
X0351953Y0257348D01*
X0351325Y0256721D01*
X0350803Y0256002D01*
X0350401Y0255212D01*
X0350126Y0254368D01*
X0349993Y0253527D01*
X0358985Y0253527D01*
X0358985Y0258686D01*
X0355182Y0258686D01*
X0354306Y0258547D01*
X0353462Y0258273D01*
X0351366Y0256762D02*
X0343792Y0256762D01*
X0344455Y0255163D02*
X0350385Y0255163D01*
X0349999Y0253565D02*
X0344751Y0253565D01*
X0344751Y0251966D02*
X0350088Y0251966D01*
X0350126Y0251727D02*
X0350401Y0250883D01*
X0350803Y0250092D01*
X0351325Y0249374D01*
X0351953Y0248746D01*
X0352671Y0248225D01*
X0353462Y0247822D01*
X0354306Y0247548D01*
X0355182Y0247409D01*
X0358985Y0247409D01*
X0358985Y0252568D01*
X0349993Y0252568D01*
X0350126Y0251727D01*
X0350663Y0250368D02*
X0344221Y0250368D01*
X0343389Y0248769D02*
X0351930Y0248769D01*
X0358985Y0248769D02*
X0359944Y0248769D01*
X0359944Y0247409D02*
X0363747Y0247409D01*
X0364624Y0247548D01*
X0365468Y0247822D01*
X0366258Y0248225D01*
X0366976Y0248746D01*
X0367604Y0249374D01*
X0368126Y0250092D01*
X0368529Y0250883D01*
X0368803Y0251727D01*
X0368936Y0252568D01*
X0359944Y0252568D01*
X0359944Y0253527D01*
X0358985Y0253527D01*
X0358985Y0252568D01*
X0359944Y0252568D01*
X0359944Y0247409D01*
X0359944Y0250368D02*
X0358985Y0250368D01*
X0358985Y0251966D02*
X0359944Y0251966D01*
X0359944Y0253527D02*
X0368936Y0253527D01*
X0368803Y0254368D01*
X0368529Y0255212D01*
X0368126Y0256002D01*
X0367604Y0256721D01*
X0366976Y0257348D01*
X0366258Y0257870D01*
X0365468Y0258273D01*
X0364624Y0258547D01*
X0363747Y0258686D01*
X0359944Y0258686D01*
X0359944Y0253527D01*
X0359944Y0253565D02*
X0358985Y0253565D01*
X0358985Y0255163D02*
X0359944Y0255163D01*
X0359944Y0256762D02*
X0358985Y0256762D01*
X0358985Y0258360D02*
X0359944Y0258360D01*
X0365198Y0258360D02*
X0389901Y0258360D01*
X0389901Y0256762D02*
X0367563Y0256762D01*
X0368544Y0255163D02*
X0389901Y0255163D01*
X0389901Y0253565D02*
X0368930Y0253565D01*
X0368841Y0251966D02*
X0389901Y0251966D01*
X0389901Y0250368D02*
X0368266Y0250368D01*
X0366999Y0248769D02*
X0389901Y0248769D01*
X0389901Y0247171D02*
X0341790Y0247171D01*
X0135120Y0259959D02*
X0113078Y0259959D01*
X0112969Y0260068D02*
X0108164Y0260068D01*
X0104767Y0256670D01*
X0104767Y0251865D01*
X0108164Y0248468D01*
X0112969Y0248468D01*
X0116367Y0251865D01*
X0116367Y0256670D01*
X0112969Y0260068D01*
X0114677Y0258360D02*
X0133596Y0258360D01*
X0132934Y0256762D02*
X0116275Y0256762D01*
X0116367Y0255163D02*
X0132706Y0255163D01*
X0132779Y0253565D02*
X0116367Y0253565D01*
X0116367Y0251966D02*
X0133441Y0251966D01*
X0134746Y0250368D02*
X0114869Y0250368D01*
X0113271Y0248769D02*
X0133930Y0248769D01*
X0133104Y0247171D02*
X0005800Y0247171D01*
X0005800Y0248769D02*
X0054398Y0248769D01*
X0054897Y0248271D02*
X0059702Y0248271D01*
X0063099Y0251668D01*
X0063099Y0256473D01*
X0059702Y0259871D01*
X0054897Y0259871D01*
X0051499Y0256473D01*
X0051499Y0256093D01*
X0049122Y0258471D01*
X0047299Y0258471D01*
X0045477Y0258471D01*
X0042899Y0255893D01*
X0042899Y0254071D01*
X0047299Y0254071D01*
X0047299Y0254071D01*
X0047299Y0258471D01*
X0047299Y0254071D01*
X0047299Y0254071D01*
X0042899Y0254071D01*
X0042899Y0252248D01*
X0045477Y0249671D01*
X0047299Y0249671D01*
X0047299Y0254071D01*
X0047299Y0254071D01*
X0047299Y0249671D01*
X0049122Y0249671D01*
X0051499Y0252048D01*
X0051499Y0251668D01*
X0054897Y0248271D01*
X0052800Y0250368D02*
X0049819Y0250368D01*
X0051417Y0251966D02*
X0051499Y0251966D01*
X0051788Y0256762D02*
X0050831Y0256762D01*
X0049232Y0258360D02*
X0053386Y0258360D01*
X0047299Y0258360D02*
X0047299Y0258360D01*
X0047299Y0256762D02*
X0047299Y0256762D01*
X0047299Y0255163D02*
X0047299Y0255163D01*
X0047299Y0253565D02*
X0047299Y0253565D01*
X0047299Y0251966D02*
X0047299Y0251966D01*
X0047299Y0250368D02*
X0047299Y0250368D01*
X0044780Y0250368D02*
X0005800Y0250368D01*
X0005800Y0251966D02*
X0043181Y0251966D01*
X0042899Y0253565D02*
X0005800Y0253565D01*
X0005800Y0255163D02*
X0042899Y0255163D01*
X0043768Y0256762D02*
X0005800Y0256762D01*
X0005800Y0258360D02*
X0045366Y0258360D01*
X0061212Y0258360D02*
X0066457Y0258360D01*
X0064859Y0256762D02*
X0062811Y0256762D01*
X0063099Y0255163D02*
X0064767Y0255163D01*
X0064767Y0256670D02*
X0064767Y0251865D01*
X0068164Y0248468D01*
X0072969Y0248468D01*
X0076367Y0251865D01*
X0076367Y0256670D01*
X0072969Y0260068D01*
X0068164Y0260068D01*
X0064767Y0256670D01*
X0064767Y0253565D02*
X0063099Y0253565D01*
X0063099Y0251966D02*
X0064767Y0251966D01*
X0066264Y0250368D02*
X0061799Y0250368D01*
X0060200Y0248769D02*
X0067863Y0248769D01*
X0073271Y0248769D02*
X0107863Y0248769D01*
X0106264Y0250368D02*
X0074869Y0250368D01*
X0076367Y0251966D02*
X0104767Y0251966D01*
X0104767Y0253565D02*
X0076367Y0253565D01*
X0076367Y0255163D02*
X0104767Y0255163D01*
X0104859Y0256762D02*
X0076275Y0256762D01*
X0074677Y0258360D02*
X0106457Y0258360D01*
X0108056Y0259959D02*
X0073078Y0259959D01*
X0068056Y0259959D02*
X0005800Y0259959D01*
X0005800Y0261557D02*
X0133611Y0261557D01*
X0132949Y0263156D02*
X0005800Y0263156D01*
X0005800Y0264754D02*
X0132706Y0264754D01*
X0132765Y0266353D02*
X0005800Y0266353D01*
X0005800Y0267951D02*
X0133427Y0267951D01*
X0134711Y0269550D02*
X0005800Y0269550D01*
X0005800Y0271148D02*
X0133965Y0271148D01*
X0132706Y0245572D02*
X0005800Y0245572D01*
X0005800Y0243974D02*
X0132706Y0243974D01*
X0133272Y0242375D02*
X0005800Y0242375D01*
X0005800Y0240777D02*
X0134337Y0240777D01*
X0134339Y0239178D02*
X0005800Y0239178D01*
X0005800Y0237580D02*
X0133273Y0237580D01*
X0132706Y0235981D02*
X0005800Y0235981D01*
X0005800Y0234383D02*
X0132706Y0234383D01*
X0133103Y0232784D02*
X0005800Y0232784D01*
X0005800Y0231186D02*
X0133928Y0231186D01*
X0134748Y0229587D02*
X0005800Y0229587D01*
X0005800Y0227989D02*
X0133442Y0227989D01*
X0132780Y0226390D02*
X0005800Y0226390D01*
X0005800Y0224792D02*
X0132706Y0224792D01*
X0132933Y0223193D02*
X0005800Y0223193D01*
X0005800Y0221595D02*
X0133595Y0221595D01*
X0135118Y0219996D02*
X0005800Y0219996D01*
X0005800Y0218398D02*
X0133612Y0218398D01*
X0132950Y0216799D02*
X0005800Y0216799D01*
X0005800Y0215201D02*
X0132706Y0215201D01*
X0132764Y0213602D02*
X0005800Y0213602D01*
X0005800Y0212003D02*
X0133426Y0212003D01*
X0134709Y0210405D02*
X0005800Y0210405D01*
X0005800Y0208806D02*
X0133967Y0208806D01*
X0133119Y0207208D02*
X0005800Y0207208D01*
X0005800Y0205609D02*
X0132706Y0205609D01*
X0132706Y0204011D02*
X0005800Y0204011D01*
X0005800Y0202412D02*
X0073698Y0202412D01*
X0074385Y0203099D02*
X0070987Y0199702D01*
X0070987Y0194897D01*
X0074385Y0191499D01*
X0079190Y0191499D01*
X0082587Y0194897D01*
X0082587Y0199702D01*
X0079190Y0203099D01*
X0074385Y0203099D01*
X0072100Y0200814D02*
X0059495Y0200814D01*
X0058610Y0201699D02*
X0061187Y0199122D01*
X0061187Y0197299D01*
X0056788Y0197299D01*
X0056788Y0197299D01*
X0061187Y0197299D01*
X0061187Y0195477D01*
X0058610Y0192899D01*
X0056787Y0192899D01*
X0056787Y0197299D01*
X0052387Y0197299D01*
X0052387Y0195477D01*
X0054965Y0192899D01*
X0056787Y0192899D01*
X0056787Y0197299D01*
X0056787Y0197299D01*
X0056787Y0197299D01*
X0052387Y0197299D01*
X0052387Y0199122D01*
X0054965Y0201699D01*
X0056787Y0201699D01*
X0056787Y0197299D01*
X0056787Y0197299D01*
X0056787Y0201699D01*
X0058610Y0201699D01*
X0056787Y0200814D02*
X0056787Y0200814D01*
X0056787Y0199215D02*
X0056787Y0199215D01*
X0056787Y0197617D02*
X0056787Y0197617D01*
X0056787Y0196018D02*
X0056787Y0196018D01*
X0056787Y0194420D02*
X0056787Y0194420D01*
X0053444Y0194420D02*
X0005800Y0194420D01*
X0005800Y0196018D02*
X0052387Y0196018D01*
X0052387Y0197617D02*
X0005800Y0197617D01*
X0005800Y0199215D02*
X0052481Y0199215D01*
X0054080Y0200814D02*
X0005800Y0200814D01*
X0005800Y0192821D02*
X0073063Y0192821D01*
X0071464Y0194420D02*
X0060131Y0194420D01*
X0061187Y0196018D02*
X0070987Y0196018D01*
X0070987Y0197617D02*
X0061187Y0197617D01*
X0061094Y0199215D02*
X0070987Y0199215D01*
X0079877Y0202412D02*
X0133257Y0202412D01*
X0134300Y0200814D02*
X0081475Y0200814D01*
X0082587Y0199215D02*
X0136612Y0199215D01*
X0134891Y0197617D02*
X0082587Y0197617D01*
X0082587Y0196018D02*
X0134211Y0196018D01*
X0134134Y0194420D02*
X0119100Y0194420D01*
X0119251Y0194357D02*
X0117266Y0195180D01*
X0110718Y0195180D01*
X0108733Y0194357D01*
X0107214Y0192838D01*
X0106392Y0190854D01*
X0106392Y0188705D01*
X0107214Y0186721D01*
X0108733Y0185202D01*
X0110718Y0184380D01*
X0117266Y0184380D01*
X0119251Y0185202D01*
X0120770Y0186721D01*
X0121592Y0188705D01*
X0121592Y0190854D01*
X0120770Y0192838D01*
X0119251Y0194357D01*
X0120777Y0192821D02*
X0134616Y0192821D01*
X0135906Y0191223D02*
X0121439Y0191223D01*
X0121592Y0189624D02*
X0134785Y0189624D01*
X0133458Y0188026D02*
X0121311Y0188026D01*
X0120477Y0186427D02*
X0132796Y0186427D01*
X0132706Y0184829D02*
X0118351Y0184829D01*
X0109633Y0184829D02*
X0005800Y0184829D01*
X0005800Y0186427D02*
X0107508Y0186427D01*
X0106674Y0188026D02*
X0005800Y0188026D01*
X0005800Y0189624D02*
X0106392Y0189624D01*
X0106545Y0191223D02*
X0005800Y0191223D01*
X0005800Y0183230D02*
X0132918Y0183230D01*
X0133580Y0181632D02*
X0005800Y0181632D01*
X0005800Y0180033D02*
X0135080Y0180033D01*
X0133627Y0178435D02*
X0005800Y0178435D01*
X0005800Y0176836D02*
X0132965Y0176836D01*
X0132706Y0175238D02*
X0005800Y0175238D01*
X0005800Y0173639D02*
X0108015Y0173639D01*
X0108733Y0174357D02*
X0107214Y0172838D01*
X0106392Y0170854D01*
X0106392Y0168705D01*
X0107214Y0166721D01*
X0108733Y0165202D01*
X0110718Y0164380D01*
X0117266Y0164380D01*
X0119251Y0165202D01*
X0120770Y0166721D01*
X0121592Y0168705D01*
X0121592Y0170854D01*
X0120770Y0172838D01*
X0119251Y0174357D01*
X0117266Y0175180D01*
X0110718Y0175180D01*
X0108733Y0174357D01*
X0106884Y0172041D02*
X0080012Y0172041D01*
X0078993Y0173060D02*
X0082391Y0169662D01*
X0082391Y0164857D01*
X0078993Y0161460D01*
X0074188Y0161460D01*
X0070791Y0164857D01*
X0070791Y0169662D01*
X0074188Y0173060D01*
X0078993Y0173060D01*
X0081611Y0170442D02*
X0106392Y0170442D01*
X0106392Y0168844D02*
X0082391Y0168844D01*
X0082391Y0167245D02*
X0106997Y0167245D01*
X0108288Y0165647D02*
X0082391Y0165647D01*
X0081581Y0164048D02*
X0132706Y0164048D01*
X0132706Y0165647D02*
X0119696Y0165647D01*
X0120987Y0167245D02*
X0133134Y0167245D01*
X0134005Y0168844D02*
X0121592Y0168844D01*
X0121592Y0170442D02*
X0134672Y0170442D01*
X0133411Y0172041D02*
X0121100Y0172041D01*
X0119969Y0173639D02*
X0132749Y0173639D01*
X0133241Y0162450D02*
X0079983Y0162450D01*
X0073198Y0162450D02*
X0005800Y0162450D01*
X0005800Y0164048D02*
X0053580Y0164048D01*
X0054768Y0162860D02*
X0056590Y0162860D01*
X0056590Y0167260D01*
X0056590Y0167260D01*
X0052191Y0167260D01*
X0052191Y0169082D01*
X0054768Y0171660D01*
X0056590Y0171660D01*
X0056590Y0167260D01*
X0052191Y0167260D01*
X0052191Y0165437D01*
X0054768Y0162860D01*
X0056591Y0162860D02*
X0056591Y0167260D01*
X0060991Y0167260D01*
X0060991Y0169082D01*
X0058413Y0171660D01*
X0056591Y0171660D01*
X0056591Y0167260D01*
X0056591Y0167260D01*
X0060991Y0167260D01*
X0060991Y0165437D01*
X0058413Y0162860D01*
X0056591Y0162860D01*
X0056590Y0164048D02*
X0056591Y0164048D01*
X0056590Y0165647D02*
X0056591Y0165647D01*
X0056590Y0167245D02*
X0056591Y0167245D01*
X0056590Y0167260D02*
X0056591Y0167260D01*
X0056590Y0167260D01*
X0056590Y0168844D02*
X0056591Y0168844D01*
X0056590Y0170442D02*
X0056591Y0170442D01*
X0059631Y0170442D02*
X0071570Y0170442D01*
X0070791Y0168844D02*
X0060991Y0168844D01*
X0060991Y0167245D02*
X0070791Y0167245D01*
X0070791Y0165647D02*
X0060991Y0165647D01*
X0059601Y0164048D02*
X0071600Y0164048D01*
X0073169Y0172041D02*
X0005800Y0172041D01*
X0005800Y0170442D02*
X0053550Y0170442D01*
X0052191Y0168844D02*
X0005800Y0168844D01*
X0005800Y0167245D02*
X0052191Y0167245D01*
X0052191Y0165647D02*
X0005800Y0165647D01*
X0005800Y0160851D02*
X0134263Y0160851D01*
X0134414Y0159253D02*
X0005800Y0159253D01*
X0005800Y0157654D02*
X0133304Y0157654D01*
X0132706Y0156056D02*
X0005800Y0156056D01*
X0005800Y0154457D02*
X0132706Y0154457D01*
X0133072Y0152859D02*
X0005800Y0152859D01*
X0005800Y0151260D02*
X0133854Y0151260D01*
X0134823Y0149662D02*
X0005800Y0149662D01*
X0005800Y0148063D02*
X0133473Y0148063D01*
X0132811Y0146465D02*
X0005800Y0146465D01*
X0005800Y0144866D02*
X0132706Y0144866D01*
X0132903Y0143268D02*
X0005800Y0143268D01*
X0005800Y0141669D02*
X0133565Y0141669D01*
X0135043Y0140070D02*
X0005800Y0140070D01*
X0005800Y0138472D02*
X0133643Y0138472D01*
X0132980Y0136873D02*
X0005800Y0136873D01*
X0005800Y0135275D02*
X0132706Y0135275D01*
X0132733Y0133676D02*
X0005800Y0133676D01*
X0005800Y0132078D02*
X0133395Y0132078D01*
X0134634Y0130479D02*
X0005800Y0130479D01*
X0005800Y0128881D02*
X0134042Y0128881D01*
X0133150Y0127282D02*
X0005800Y0127282D01*
X0005800Y0125684D02*
X0132706Y0125684D01*
X0132706Y0124085D02*
X0005800Y0124085D01*
X0005800Y0122487D02*
X0133226Y0122487D01*
X0134225Y0120888D02*
X0005800Y0120888D01*
X0005800Y0119290D02*
X0134451Y0119290D01*
X0133319Y0117691D02*
X0005800Y0117691D01*
X0005800Y0116093D02*
X0132706Y0116093D01*
X0132706Y0114494D02*
X0005800Y0114494D01*
X0005800Y0112896D02*
X0133056Y0112896D01*
X0133816Y0111297D02*
X0005800Y0111297D01*
X0005800Y0109699D02*
X0135445Y0109699D01*
X0105680Y0104903D02*
X0005800Y0104903D01*
X0005800Y0103305D02*
X0085696Y0103305D01*
X0086884Y0104493D02*
X0082901Y0100510D01*
X0082901Y0097893D01*
X0089501Y0097893D01*
X0089501Y0104493D01*
X0086884Y0104493D01*
X0089501Y0103305D02*
X0089901Y0103305D01*
X0089901Y0104493D02*
X0092517Y0104493D01*
X0096501Y0100510D01*
X0096501Y0097893D01*
X0089901Y0097893D01*
X0089901Y0097493D01*
X0096501Y0097493D01*
X0096501Y0094876D01*
X0092517Y0090893D01*
X0089901Y0090893D01*
X0089901Y0097493D01*
X0089501Y0097493D01*
X0089501Y0090893D01*
X0086884Y0090893D01*
X0082901Y0094876D01*
X0082901Y0097493D01*
X0089501Y0097493D01*
X0089501Y0097893D01*
X0089901Y0097893D01*
X0089901Y0104493D01*
X0089901Y0101706D02*
X0089501Y0101706D01*
X0089501Y0100108D02*
X0089901Y0100108D01*
X0089901Y0098509D02*
X0089501Y0098509D01*
X0089501Y0096911D02*
X0089901Y0096911D01*
X0089901Y0095312D02*
X0089501Y0095312D01*
X0089501Y0093714D02*
X0089901Y0093714D01*
X0089901Y0092115D02*
X0089501Y0092115D01*
X0085662Y0092115D02*
X0005800Y0092115D01*
X0005800Y0090517D02*
X0105598Y0090517D01*
X0103682Y0092115D02*
X0093740Y0092115D01*
X0095338Y0093714D02*
X0102473Y0093714D01*
X0101811Y0095312D02*
X0096501Y0095312D01*
X0096501Y0096911D02*
X0101501Y0096911D01*
X0101501Y0098509D02*
X0096501Y0098509D01*
X0096501Y0100108D02*
X0101825Y0100108D01*
X0102488Y0101706D02*
X0095304Y0101706D01*
X0093706Y0103305D02*
X0103716Y0103305D01*
X0084097Y0101706D02*
X0005800Y0101706D01*
X0005800Y0100108D02*
X0082901Y0100108D01*
X0082901Y0098509D02*
X0005800Y0098509D01*
X0005800Y0096911D02*
X0082901Y0096911D01*
X0082901Y0095312D02*
X0005800Y0095312D01*
X0005800Y0093714D02*
X0084063Y0093714D01*
X0080512Y0192821D02*
X0107207Y0192821D01*
X0108884Y0194420D02*
X0082110Y0194420D01*
X0071839Y0274345D02*
X0106381Y0274345D01*
X0104783Y0275944D02*
X0073438Y0275944D01*
X0074910Y0277542D02*
X0103310Y0277542D01*
X0103310Y0279141D02*
X0074910Y0279141D01*
X0074910Y0280739D02*
X0103310Y0280739D01*
X0103427Y0282338D02*
X0074794Y0282338D01*
X0073195Y0283937D02*
X0105025Y0283937D01*
X0106624Y0285535D02*
X0071597Y0285535D01*
X0053175Y0283937D02*
X0048971Y0283937D01*
X0047063Y0283937D02*
X0047063Y0283937D01*
X0047063Y0284022D02*
X0045240Y0284022D01*
X0042663Y0281445D01*
X0042663Y0279622D01*
X0047063Y0279622D01*
X0047063Y0284022D01*
X0047063Y0282338D02*
X0047063Y0282338D01*
X0047063Y0280739D02*
X0047063Y0280739D01*
X0047063Y0279141D02*
X0047063Y0279141D01*
X0047063Y0277542D02*
X0047063Y0277542D01*
X0047063Y0275944D02*
X0047063Y0275944D01*
X0049607Y0275944D02*
X0052539Y0275944D01*
X0051263Y0277542D02*
X0051206Y0277542D01*
X0051577Y0282338D02*
X0050570Y0282338D01*
X0045155Y0283937D02*
X0005800Y0283937D01*
X0005800Y0282338D02*
X0043556Y0282338D01*
X0042663Y0280739D02*
X0005800Y0280739D01*
X0005800Y0279141D02*
X0042663Y0279141D01*
X0042920Y0277542D02*
X0005800Y0277542D01*
X0005800Y0275944D02*
X0044519Y0275944D01*
X0050899Y0307914D02*
X0051641Y0307914D01*
D22*
X0070803Y0095724D03*
X0272772Y0158008D03*
X0273362Y0092181D03*
X0348795Y0176354D03*
X0278953Y0331394D03*
X0298283Y0362181D03*
D23*
X0279307Y0362181D01*
X0236669Y0319543D01*
X0236669Y0297887D01*
X0239502Y0295054D01*
X0252377Y0295054D01*
X0252417Y0295094D01*
X0252417Y0305094D02*
X0278717Y0331394D01*
X0278953Y0331394D01*
X0272772Y0185449D02*
X0329465Y0186354D01*
X0348795Y0176354D02*
X0348795Y0120843D01*
X0316079Y0088126D01*
X0279268Y0124937D01*
X0271433Y0124937D01*
X0271276Y0125094D01*
X0252417Y0125094D01*
X0271197Y0094346D02*
X0212772Y0094346D01*
X0178441Y0128677D01*
X0178441Y0144976D01*
X0178402Y0145016D01*
X0167260Y0145016D01*
X0272772Y0158008D02*
X0272772Y0185449D01*
X0271197Y0094346D02*
X0273362Y0092181D01*
M02*
